<?xml version="1.0" standalone="no"?>
<!DOCTYPE svg PUBLIC "-//W3C//DTD SVG 20010904//EN"
 "http://www.w3.org/TR/2001/REC-SVG-20010904/DTD/svg10.dtd">
<svg version="1.0" xmlns="http://www.w3.org/2000/svg"
 width="1824.000000pt" height="1560.000000pt" viewBox="0 0 1824.000000 1560.000000"
 preserveAspectRatio="xMidYMid meet">
<metadata>
Created by potrace 1.16, written by Peter Selinger 2001-2019
</metadata>
<g transform="translate(0.000000,1560.000000) scale(0.100000,-0.100000)"
fill="#000000" stroke="none">
<path d="M16418 15163 l-247 -248 510 -512 c281 -282 512 -513 514 -513 1 0
111 109 244 241 215 216 241 245 241 274 0 29 -45 76 -491 516 -269 266 -498
485 -507 487 -11 2 -107 -88 -264 -245z m860 -559 c82 -34 131 -111 132 -205
0 -63 -36 -145 -63 -143 -8 1 -13 -4 -11 -10 3 -7 -15 -23 -38 -36 -108 -62
-256 -10 -304 106 -20 47 -17 131 5 180 45 99 178 151 279 108z"/>
<path d="M10715 15258 c-3 -7 -4 -395 -3 -863 l3 -850 693 -3 692 -2 -2 187
-3 188 -447 3 -448 2 0 155 0 155 380 0 380 0 0 185 0 185 -380 0 -380 0 0
145 0 145 435 0 435 0 -2 188 -3 187 -673 3 c-533 2 -674 0 -677 -10z"/>
<path d="M12230 14400 l0 -860 240 0 240 0 0 860 0 860 -240 0 -240 0 0 -860z"/>
<path d="M850 14141 c0 -690 3 -1050 10 -1053 5 -1 478 -2 1050 0 l1040 2 0
1050 0 1050 -1050 0 -1050 0 0 -1049z m1370 684 l0 -335 -335 0 -335 0 145
-290 c80 -159 145 -295 145 -300 0 -17 -79 -48 -166 -66 -147 -31 -314 -3
-454 73 -101 56 -218 180 -269 285 -67 137 -71 172 -71 596 l0 372 670 0 670
0 0 -335z m670 -375 c0 -13 -633 -1280 -640 -1280 -7 0 -640 1267 -640 1280 0
7 221 10 640 10 419 0 640 -3 640 -10z"/>
<path d="M6494 15096 c-3 -8 -4 -40 -2 -71 1 -30 2 -55 2 -55 -1 0 -17 6 -35
14 -76 32 -130 -10 -137 -104 -5 -73 10 -116 50 -136 33 -17 79 -11 99 12 15
18 29 18 29 -1 0 -8 9 -15 20 -15 20 0 20 5 18 182 -3 165 -5 183 -21 186 -9
2 -20 -3 -23 -12z m-26 -152 c18 -13 22 -24 22 -74 0 -67 -23 -100 -71 -100
-36 0 -51 21 -57 79 -8 92 44 139 106 95z"/>
<path d="M3316 14953 c78 -222 74 -213 104 -213 25 0 29 7 83 163 32 89 57
165 57 170 0 4 -9 7 -19 7 -16 0 -28 -25 -68 -145 -26 -80 -51 -145 -55 -145
-5 0 -8 4 -8 10 0 5 -21 70 -46 145 -42 122 -49 135 -70 135 l-23 0 45 -127z"/>
<path d="M5160 15026 c0 -28 -4 -35 -22 -38 -13 -2 -23 -7 -23 -13 0 -5 10
-11 23 -13 21 -3 22 -8 22 -92 0 -49 3 -96 6 -105 9 -22 49 -37 80 -29 35 9
30 32 -8 36 l-33 3 -3 93 -3 92 36 0 c24 0 35 4 35 15 0 10 -11 15 -35 15 -33
0 -35 2 -35 35 0 28 -4 35 -20 35 -16 0 -20 -7 -20 -34z"/>
<path d="M3800 14987 c-48 -16 -72 -65 -67 -135 5 -65 31 -104 79 -115 48 -11
108 13 108 44 0 20 -1 21 -25 5 -65 -43 -120 -6 -119 80 0 87 32 107 122 79
16 -6 22 -3 22 8 0 32 -69 51 -120 34z"/>
<path d="M4033 14985 c-52 -22 -69 -65 -64 -157 2 -41 45 -85 89 -92 49 -8
106 6 110 26 3 14 -5 15 -56 11 -52 -5 -62 -3 -81 16 -11 11 -21 32 -21 46 0
25 1 25 85 25 l85 0 0 36 c0 48 -15 73 -55 90 -42 17 -51 17 -92 -1z"/>
<path d="M4704 14993 c-40 -8 -76 -58 -81 -110 -11 -107 47 -162 150 -146 36
6 53 13 55 24 3 15 -5 16 -60 12 -70 -6 -95 9 -100 58 -3 24 -2 24 86 27 l89
3 -6 41 c-9 66 -66 105 -133 91z"/>
<path d="M4972 14989 c-47 -14 -72 -60 -72 -131 0 -50 4 -62 29 -90 26 -29 35
-33 76 -32 33 1 53 7 67 21 27 27 15 49 -15 28 -12 -8 -36 -15 -54 -15 -26 0
-36 6 -48 30 -37 72 -3 166 59 157 17 -2 39 -7 49 -12 13 -5 17 -2 17 13 0 19
-12 27 -60 37 -8 2 -30 -1 -48 -6z"/>
<path d="M5391 14987 c-64 -23 -97 -104 -71 -181 16 -48 50 -70 111 -70 71 0
119 52 119 129 0 98 -71 153 -159 122z m96 -54 c10 -15 18 -46 18 -68 0 -61
-26 -95 -74 -95 -43 0 -57 12 -71 61 -12 40 3 104 28 118 34 20 80 13 99 -16z"/>
<path d="M5980 14987 c-20 -7 -36 -20 -38 -31 -3 -15 0 -17 14 -11 11 5 37 10
60 13 46 4 68 -13 62 -50 -2 -18 -10 -23 -37 -25 -80 -4 -111 -26 -111 -78 0
-61 61 -90 121 -59 23 11 34 13 37 5 2 -6 10 -11 18 -11 11 0 14 20 14 101 0
55 -4 109 -10 119 -9 17 -60 41 -84 39 -6 0 -27 -5 -46 -12z"/>
<path d="M6684 14989 c-51 -15 -68 -42 -72 -118 -4 -61 -2 -70 22 -98 41 -48
153 -56 176 -12 10 17 6 18 -54 12 -56 -5 -66 -3 -85 16 -11 11 -21 32 -21 46
0 24 2 24 88 27 l87 3 -3 35 c-5 50 -19 70 -57 86 -38 16 -38 16 -81 3z"/>
<path d="M4470 14500 c0 -23 -4 -30 -20 -30 -11 0 -20 -6 -20 -14 0 -8 9 -18
20 -21 18 -6 20 -15 20 -93 0 -109 14 -135 68 -130 26 2 38 8 40 21 3 14 -1
17 -21 12 -19 -5 -28 -2 -36 13 -12 23 -15 172 -3 173 71 5 102 5 111 0 6 -4
12 -53 13 -111 3 -90 5 -105 21 -108 15 -3 17 8 17 127 l0 131 -85 0 -85 0 0
30 c0 23 -4 30 -20 30 -16 0 -20 -7 -20 -30z"/>
<path d="M3447 14463 c-4 -3 -7 -60 -7 -125 0 -98 3 -120 15 -125 9 -3 18 -3
21 -1 2 3 5 43 6 89 1 77 4 86 29 111 31 32 47 34 75 14 16 -12 20 -30 24
-113 4 -78 8 -98 20 -98 12 0 15 19 15 108 0 102 -1 110 -24 128 -31 25 -82
24 -115 -2 l-26 -20 0 20 c0 20 -19 28 -33 14z"/>
<path d="M3700 14457 c0 -8 17 -63 39 -123 59 -167 80 -167 139 1 47 132 48
135 27 135 -16 0 -37 -42 -70 -142 -11 -32 -22 -58 -25 -58 -4 0 -14 25 -24
56 -29 93 -54 144 -71 144 -8 0 -15 -6 -15 -13z"/>
<path d="M3994 14436 c-31 -31 -34 -40 -34 -90 0 -67 15 -103 51 -122 50 -25
167 -11 156 19 -2 6 -10 11 -17 9 -72 -16 -99 -14 -124 11 -14 14 -26 35 -26
46 0 18 8 20 88 23 l87 3 -2 40 c-3 55 -47 95 -104 95 -33 0 -47 -6 -75 -34z"/>
<path d="M4267 14459 c-53 -31 -37 -101 29 -130 56 -24 72 -52 42 -73 -28 -20
-41 -20 -78 -1 -28 15 -30 14 -30 -4 0 -62 141 -51 163 12 12 32 -11 66 -63
92 -28 14 -53 32 -57 41 -13 35 44 57 88 34 16 -9 19 -7 19 9 0 10 -7 22 -16
25 -24 9 -77 7 -97 -5z"/>
<path d="M4786 14448 c-26 -23 -38 -80 -22 -106 3 -6 1 -22 -6 -37 -9 -21 -9
-31 0 -46 10 -16 10 -24 -3 -42 -40 -57 -3 -97 91 -97 78 0 114 24 114 75 0
44 -29 65 -91 65 -60 0 -79 7 -79 30 0 16 6 18 34 13 19 -3 46 -3 60 1 34 8
60 59 52 101 -5 27 -4 33 11 31 10 0 18 6 18 14 0 12 -16 16 -76 18 -68 2 -80
0 -103 -20z"/>
<path d="M5043 14460 c-14 -6 -23 -18 -23 -30 0 -20 1 -20 30 -5 56 29 110 8
110 -42 0 -18 -8 -21 -56 -25 -67 -6 -98 -31 -96 -80 2 -58 78 -91 128 -53 25
19 34 19 34 0 0 -8 7 -15 15 -15 12 0 15 18 15 105 0 99 -2 107 -25 130 -26
27 -87 33 -132 15z"/>
<path d="M5321 14456 c-36 -20 -50 -55 -51 -124 0 -57 3 -67 29 -93 21 -21 39
-29 65 -29 47 0 86 19 86 42 0 22 -8 22 -34 3 -28 -21 -53 -18 -81 10 -49 48
-22 175 36 175 11 0 33 -7 49 -15 28 -15 30 -14 30 4 0 39 -79 55 -129 27z"/>
<path d="M5678 14447 c-66 -54 -63 -174 4 -221 31 -22 96 -20 134 3 64 39 73
162 15 213 -41 37 -112 39 -153 5z m112 -17 c24 -13 42 -77 34 -119 -7 -32
-45 -71 -70 -71 -34 0 -65 25 -74 60 -25 91 40 167 110 130z"/>
<path d="M5940 14340 c0 -120 2 -131 18 -128 14 3 17 17 20 95 3 86 5 94 29
113 63 49 91 16 95 -110 3 -81 6 -95 21 -98 15 -3 17 7 17 106 0 101 -2 110
-23 130 -27 26 -82 29 -111 7 -24 -18 -37 -19 -33 -3 1 6 -6 14 -15 16 -16 3
-18 -8 -18 -128z"/>
<path d="M6273 14460 c-37 -15 -58 -58 -58 -121 0 -99 53 -140 158 -125 38 6
47 11 47 28 0 13 -5 18 -14 15 -80 -31 -145 -8 -146 50 0 21 5 22 83 25 l82 3
3 38 c6 73 -76 119 -155 87z"/>
<path d="M6527 14459 c-25 -15 -38 -54 -28 -83 6 -13 28 -32 53 -44 24 -11 50
-28 58 -37 13 -15 12 -20 -9 -36 -28 -23 -43 -24 -81 -4 -28 15 -30 14 -30 -4
0 -26 29 -41 77 -41 47 0 78 20 87 56 10 37 -15 69 -69 93 -25 11 -48 27 -51
36 -14 36 42 58 87 35 16 -9 19 -7 19 9 0 10 -7 22 -16 25 -24 9 -77 7 -97 -5z"/>
<path d="M16905 13927 c8 -76 -11 -140 -56 -191 -52 -59 -107 -80 -196 -74
l-67 4 34 -15 c51 -22 157 -21 207 4 54 26 97 87 99 141 1 23 5 48 10 55 4 7
3 14 -4 17 -7 2 -12 16 -13 30 -1 15 -5 38 -10 52 -6 19 -8 13 -4 -23z"/>
<path d="M4790 13809 c0 -41 -3 -50 -12 -41 -13 13 -57 16 -75 4 -19 -12 -33
-61 -28 -95 11 -59 46 -78 96 -52 17 9 28 12 25 6 -4 -6 0 -11 9 -11 14 0 15
15 13 117 -2 82 -7 118 -15 121 -9 2 -13 -11 -13 -49z"/>
<path d="M3220 13730 l0 -110 54 0 c65 0 102 25 112 75 17 92 -27 145 -118
145 l-48 0 0 -110z m115 65 c19 -18 25 -35 25 -70 0 -59 -25 -85 -80 -85 l-40
0 0 90 0 90 35 0 c25 0 44 -8 60 -25z"/>
<path d="M4230 13760 c-24 -24 -27 -96 -6 -125 21 -29 92 -27 117 4 23 28 25
88 3 119 -20 29 -85 31 -114 2z"/>
<path d="M5951 13754 c-29 -37 -27 -89 4 -119 30 -31 66 -32 101 -2 21 18 27
32 27 65 0 56 -24 82 -74 82 -29 0 -42 -6 -58 -26z"/>
<path d="M8050 13760 c-14 -14 -20 -33 -20 -62 0 -49 6 -60 37 -77 34 -17 62
-13 88 14 29 29 34 88 9 123 -20 29 -85 31 -114 2z"/>
<path d="M882 12884 c3 -102 4 -107 31 -130 49 -42 152 -29 176 23 6 13 11 66
11 118 0 95 0 95 -25 95 -25 0 -25 -1 -25 -90 0 -77 -3 -93 -20 -110 -24 -24
-53 -26 -74 -4 -12 12 -16 37 -16 110 l0 94 -31 0 -31 0 4 -106z"/>
<path d="M2430 12949 c0 -36 -2 -40 -17 -33 -51 23 -107 -4 -118 -57 -19 -86
47 -155 115 -119 13 7 21 7 25 0 3 -5 15 -10 26 -10 18 0 19 8 19 130 l0 130
-25 0 c-23 0 -25 -4 -25 -41z"/>
<path d="M2870 12950 c0 -22 -2 -40 -4 -40 -1 0 -17 5 -34 11 -23 8 -37 7 -54
-2 -36 -19 -47 -40 -48 -92 0 -38 5 -53 25 -72 25 -26 63 -32 96 -15 13 7 19
7 19 0 0 -5 10 -8 23 -6 21 3 22 7 25 129 l3 127 -26 0 c-23 0 -25 -4 -25 -40z"/>
<path d="M1223 12915 c-13 -9 -23 -11 -23 -6 0 6 -11 11 -25 11 l-26 0 3 -92
c3 -85 5 -93 23 -93 18 0 20 8 23 65 3 69 13 90 43 90 25 0 39 -37 39 -106 0
-47 2 -54 20 -54 16 0 20 7 21 33 3 83 -2 132 -13 143 -22 22 -62 26 -85 9z"/>
<path d="M1705 12921 c-47 -20 -69 -70 -54 -126 12 -43 43 -65 89 -65 35 0 80
28 80 50 0 13 -37 13 -45 0 -11 -18 -64 -11 -74 9 -15 27 -5 31 66 31 68 0 72
4 53 54 -9 25 -56 57 -82 55 -7 0 -22 -4 -33 -8z"/>
<path d="M2055 12923 c-28 -7 -55 -33 -55 -53 0 -24 21 -39 72 -55 31 -9 43
-17 43 -31 0 -25 -52 -33 -61 -10 -6 16 -54 23 -54 8 0 -25 30 -45 77 -49 42
-5 54 -2 72 16 31 31 27 67 -9 86 -16 8 -37 15 -48 15 -18 0 -42 18 -42 32 0
12 58 10 65 -2 9 -15 45 -12 45 4 0 28 -60 50 -105 39z"/>
<path d="M2571 12922 c-13 -4 -30 -17 -39 -30 -14 -21 -13 -22 9 -22 13 0 32
7 42 14 23 18 57 9 57 -15 0 -13 -10 -20 -37 -24 -73 -12 -85 -21 -81 -62 2
-31 8 -39 31 -47 19 -7 37 -7 57 1 18 7 32 7 36 2 3 -5 14 -9 25 -9 17 0 19 8
19 84 0 55 -4 87 -12 94 -18 14 -78 22 -107 14z"/>
<path d="M1450 12911 c0 -6 14 -48 30 -94 29 -78 33 -84 58 -83 25 1 30 8 59
94 l33 93 -27 -3 c-22 -3 -28 -11 -40 -53 -8 -27 -18 -54 -22 -58 -4 -4 -16
20 -26 53 -15 51 -22 60 -42 60 -12 0 -23 -4 -23 -9z"/>
<path d="M1330 12601 l0 -38 -49 5 c-41 4 -52 1 -68 -17 -35 -41 -33 -112 3
-152 19 -21 64 -25 95 -9 13 8 19 7 19 0 0 -6 10 -10 23 -8 21 3 22 6 23 131
1 127 1 127 -23 127 -20 0 -23 -5 -23 -39z"/>
<path d="M1811 12628 c0 -7 17 -65 37 -128 l38 -115 32 0 33 0 40 120 c21 66
39 124 39 128 0 5 -12 7 -27 5 -25 -3 -30 -10 -52 -85 -13 -46 -27 -83 -31
-83 -3 0 -18 38 -34 85 -24 76 -30 85 -52 85 -13 0 -24 -6 -23 -12z"/>
<path d="M1452 12563 c-20 -8 -42 -59 -42 -96 0 -74 93 -114 154 -66 46 36 21
56 -30 23 -20 -14 -30 -15 -49 -6 -14 7 -25 18 -25 27 0 16 5 17 83 17 44 1
47 2 47 28 0 15 -9 39 -21 54 -16 21 -28 26 -62 25 -23 0 -48 -3 -55 -6z"/>
<path d="M2058 12559 c-24 -14 -23 -49 1 -49 10 0 24 7 31 15 18 22 60 20 60
-4 0 -20 -18 -31 -54 -31 -32 0 -66 -28 -66 -55 0 -42 23 -54 102 -53 l73 1
-2 80 c-1 43 -8 85 -14 93 -13 16 -105 19 -131 3z"/>
<path d="M2455 12545 c-36 -35 -35 -102 1 -139 37 -36 95 -36 132 1 33 33 16
42 -33 19 -39 -19 -75 -8 -75 22 0 14 10 17 65 16 64 0 65 0 65 26 0 15 -9 39
-21 54 -29 36 -99 37 -134 1z"/>
<path d="M850 12240 l0 -30 1050 0 1050 0 0 30 0 30 -1050 0 -1050 0 0 -30z"/>
<path d="M0 5930 l0 -5900 564 0 c512 0 567 2 594 17 28 16 31 16 55 0 25 -16
548 -17 8507 -17 l8480 0 0 5900 0 5900 -9100 0 -9100 0 0 -5900z m9240 5261
c74 -28 132 -71 169 -128 42 -63 55 -113 55 -208 -1 -154 -42 -227 -260 -460
l-149 -160 223 -3 222 -2 0 -115 0 -115 -400 0 -400 0 0 91 0 90 228 244 c132
141 240 265 256 295 37 67 44 143 18 189 -27 49 -73 71 -152 71 -77 0 -157
-34 -192 -81 -12 -16 -25 -29 -28 -29 -3 0 -45 29 -93 63 l-87 64 34 45 c63
82 174 147 286 169 72 13 208 3 270 -20z m915 13 c118 -30 211 -108 271 -226
144 -285 89 -740 -110 -903 -23 -19 -69 -47 -102 -62 -52 -25 -71 -28 -160
-28 -96 0 -103 2 -176 38 -125 61 -201 163 -250 334 -20 67 -23 102 -23 243 0
185 12 244 69 365 93 196 284 291 481 239z m936 2 c87 -19 136 -45 192 -101
63 -63 89 -135 90 -245 0 -159 -42 -232 -263 -468 l-147 -157 223 -3 224 -2 0
-115 0 -115 -400 0 -400 0 0 93 1 92 229 244 c247 264 284 315 285 396 1 107
-41 148 -156 153 -89 5 -150 -18 -199 -75 -19 -21 -35 -31 -43 -27 -6 4 -47
32 -89 63 -86 61 -86 60 -22 131 109 121 295 174 475 136z m-5531 -115 c0
-100 -2 -110 -20 -116 -10 -3 -135 -5 -277 -3 l-258 3 0 -129 0 -129 243 1
242 1 0 -110 0 -109 -245 0 -246 0 3 -137 3 -138 288 -3 287 -2 0 -110 0 -110
-410 0 -410 0 0 600 0 600 400 0 400 0 0 -109z m460 -491 l0 -600 -125 0 -125
0 0 600 0 600 125 0 125 0 0 -600z m1050 491 c0 -89 -3 -110 -15 -115 -9 -3
-134 -5 -278 -5 l-262 1 -3 -156 -3 -156 246 0 245 0 0 -115 0 -114 -232 0
c-128 -1 -239 -1 -245 -1 -10 0 -13 -50 -13 -215 l0 -215 -120 0 -120 0 0 600
0 600 400 0 400 0 0 -109z m729 32 c16 -43 122 -311 235 -597 113 -285 206
-520 206 -522 0 -2 -58 -4 -129 -4 l-128 0 -28 78 c-15 42 -36 101 -47 130
l-19 52 -244 0 -244 0 -19 -52 c-11 -29 -32 -88 -48 -130 l-29 -78 -122 0
c-77 0 -123 4 -123 10 0 6 81 216 180 468 100 251 204 517 233 589 l52 133
122 0 122 0 30 -77z m4425 50 c-10 -16 -93 -145 -184 -288 -92 -143 -188 -293
-213 -332 l-47 -73 140 0 140 0 0 110 0 110 115 0 115 0 0 -110 0 -109 88 -3
87 -3 0 -110 0 -110 -87 -3 -88 -3 0 -124 0 -125 -120 0 -120 0 0 125 0 125
-285 0 -285 0 0 93 0 92 83 125 c45 69 158 241 251 383 l169 257 130 0 129 0
-18 -27z m-8577 -1506 c45 -44 10 -127 -53 -127 -70 0 -99 76 -48 127 20 20
31 24 57 19 17 -4 37 -12 44 -19z m9326 -9 c38 -45 3 -118 -59 -118 -60 0 -92
57 -63 111 22 42 89 46 122 7z m-5405 -325 l-3 -318 -57 -3 -58 -3 0 321 0
320 60 0 60 0 -2 -317z m3860 0 l-3 -318 -53 -3 c-46 -3 -54 0 -59 17 -5 19
-5 19 -36 0 -46 -28 -140 -26 -189 4 -128 77 -145 292 -31 399 58 55 154 66
217 23 l36 -24 0 109 0 110 60 0 60 0 -2 -317z m702 -3 l0 -320 -60 0 -60 0 0
320 0 320 60 0 60 0 0 -320z m1600 0 l0 -320 -60 0 -60 0 0 320 0 320 60 0 60
0 0 -320z m-12372 -17 l-3 -298 -60 0 -60 0 -3 298 -2 297 65 0 65 0 -2 -297z
m13346 201 l58 -95 53 86 c29 48 57 91 62 96 6 6 38 9 72 7 l62 -3 -87 -135
c-48 -74 -87 -139 -87 -145 0 -7 173 -287 187 -303 2 -1 46 65 99 148 l97 149
-90 141 c-50 77 -90 142 -90 145 0 3 31 5 69 5 l68 0 58 -94 c51 -81 61 -92
70 -78 6 9 33 52 59 95 l48 77 64 0 c35 0 64 -2 64 -6 0 -3 -38 -65 -85 -138
-47 -73 -85 -138 -85 -143 0 -6 43 -77 95 -157 65 -102 90 -148 81 -152 -7 -3
-39 -4 -71 -2 l-58 3 -59 95 c-32 52 -61 96 -66 98 -4 1 -23 -24 -42 -55 -19
-32 -47 -77 -63 -101 l-28 -43 -137 3 -136 3 -64 102 -64 103 -62 -103 -62
-102 -67 -3 c-42 -2 -67 1 -67 7 0 6 41 73 90 149 50 77 90 144 90 151 0 7
-36 69 -81 138 -44 69 -83 132 -86 139 -4 11 10 14 63 14 l69 0 59 -96z m1026
-204 l0 -300 -60 0 -60 0 0 300 0 300 60 0 60 0 0 -300z m-6015 215 l0 -50 50
-5 50 -5 3 -52 3 -53 -53 0 -53 0 5 -115 c6 -137 14 -148 81 -121 13 6 19 -3
29 -40 12 -43 12 -48 -5 -60 -24 -17 -122 -18 -155 -1 -13 7 -35 28 -47 46
-21 31 -23 45 -23 162 l0 129 -36 0 -35 0 3 53 c3 51 4 52 36 55 32 3 32 4 32
58 l0 55 58 -3 57 -3 0 -50z m-7905 -67 c72 -49 75 -59 78 -264 l3 -185 -58 3
-58 3 -2 147 c-1 85 -7 156 -13 168 -25 47 -115 45 -143 -3 -7 -13 -14 -79
-17 -167 l-5 -145 -57 -3 -58 -3 0 231 0 230 55 0 c49 0 55 -2 55 -21 0 -20 0
-20 28 -1 38 27 50 30 108 31 37 1 60 -5 84 -21z m468 -7 c32 -22 32 -22 32
-2 0 19 6 21 55 21 l55 0 0 -223 c0 -236 -5 -269 -45 -327 -37 -54 -92 -75
-190 -75 -67 0 -89 5 -137 28 l-58 28 25 49 25 49 35 -20 c20 -12 60 -23 92
-26 78 -6 118 18 131 79 5 24 8 44 6 46 -1 2 -17 -6 -35 -17 -48 -30 -140 -28
-194 2 -140 79 -137 318 5 395 59 31 149 28 198 -7z m520 14 c76 -32 121 -101
129 -197 l6 -58 -157 0 c-86 0 -156 -2 -156 -5 0 -4 6 -18 14 -33 30 -58 120
-75 175 -34 l30 22 31 -41 c31 -38 32 -41 15 -59 -52 -58 -208 -67 -283 -17
-23 14 -54 48 -69 74 -24 42 -28 58 -28 128 0 86 19 138 67 182 55 51 153 68
226 38z m542 -4 c22 -12 44 -36 60 -67 24 -46 25 -57 25 -214 l0 -165 -57 -3
-58 -3 -1 133 c0 152 -11 197 -52 216 -35 17 -91 1 -110 -31 -7 -13 -14 -79
-17 -167 l-5 -145 -57 -3 -58 -3 0 231 0 230 55 0 c48 0 55 -3 55 -19 0 -19 2
-19 43 4 52 31 127 33 177 6z m688 4 c76 -32 118 -97 129 -195 l6 -60 -157 0
c-106 0 -156 -3 -156 -11 0 -6 9 -24 21 -40 36 -51 130 -58 179 -14 16 15 20
13 50 -25 31 -39 32 -42 15 -60 -54 -60 -211 -68 -287 -15 -144 100 -125 351
32 419 46 20 121 20 168 1z m462 -45 c0 -58 -1 -60 -25 -60 -33 0 -80 -24 -91
-47 -5 -10 -11 -81 -14 -158 l-5 -140 -57 -3 -58 -3 0 231 0 230 55 0 c53 0
55 -1 55 -27 l0 -26 23 21 c26 24 63 40 95 41 20 1 22 -3 22 -59z m577 34 c71
-53 87 -114 81 -324 l-3 -115 -55 0 c-49 0 -55 2 -54 21 0 21 0 21 -34 -3 -46
-31 -132 -32 -180 -3 -59 36 -80 126 -42 187 27 46 69 63 166 70 80 6 84 7 78
27 -13 42 -35 56 -88 56 -28 0 -64 -7 -80 -15 -39 -21 -41 -20 -61 25 -16 35
-17 43 -4 55 47 48 221 60 276 19z m710 15 c38 -14 80 -56 106 -104 17 -31 22
-58 22 -120 0 -104 -27 -164 -94 -207 -41 -26 -53 -29 -113 -26 -47 3 -72 9
-87 22 -12 11 -22 17 -22 15 -1 -3 -6 -119 -9 -186 0 -9 -18 -13 -55 -13 l-55
0 0 310 0 310 55 0 c48 0 55 -2 55 -20 0 -18 2 -18 36 5 40 27 110 34 161 14z
m473 -11 c33 -17 51 -35 68 -68 20 -41 22 -58 22 -212 l0 -168 -55 0 c-52 0
-55 1 -55 25 l0 26 -22 -21 c-30 -27 -57 -33 -125 -28 -49 4 -61 10 -90 41
-28 32 -33 44 -33 88 0 99 48 137 181 146 87 6 98 18 59 61 -28 29 -111 31
-157 3 -22 -14 -33 -16 -36 -8 -3 7 -12 29 -21 49 l-16 37 32 17 c80 41 180
46 248 12z m450 -38 c0 -58 -1 -60 -25 -60 -33 0 -80 -24 -91 -47 -5 -10 -11
-81 -14 -158 l-5 -140 -57 -3 -58 -3 0 231 0 230 55 0 c53 0 55 -1 55 -27 l0
-26 23 21 c26 24 63 40 95 41 20 1 22 -3 22 -59z m317 49 c15 -5 42 -24 60
-41 44 -43 55 -102 51 -273 l-3 -140 -52 -3 c-52 -3 -53 -2 -53 24 l0 27 -25
-23 c-37 -35 -145 -40 -193 -10 -84 52 -79 190 9 235 16 9 68 19 115 22 91 6
98 12 63 57 -17 22 -28 26 -71 26 -27 0 -65 -7 -84 -16 -19 -9 -36 -15 -37
-13 -1 2 -11 22 -21 44 -18 39 -18 40 5 55 56 38 174 53 236 29z m948 -8 c82
-38 127 -115 128 -217 1 -138 -89 -234 -220 -234 -75 0 -99 9 -148 52 -53 46
-75 98 -75 181 0 76 13 116 56 166 57 68 174 91 259 52z m460 8 c61 -17 66
-24 48 -67 -21 -52 -25 -54 -66 -37 -68 28 -147 15 -147 -25 0 -24 25 -38 90
-50 115 -22 156 -64 148 -152 -9 -85 -71 -128 -187 -128 -72 0 -126 12 -156
34 -17 13 -18 17 -5 55 7 23 17 44 21 46 3 3 21 -3 39 -12 64 -32 161 -30 174
4 10 26 -13 41 -94 58 -88 18 -120 39 -139 88 -25 68 13 152 84 183 37 16 136
18 190 3z m615 -49 c0 -58 -1 -60 -25 -60 -33 0 -80 -24 -91 -47 -5 -10 -11
-81 -14 -158 l-5 -140 -57 -3 -58 -3 0 231 0 230 55 0 c53 0 55 -1 55 -27 l0
-26 23 21 c26 24 63 40 95 41 20 1 22 -3 22 -59z m347 41 c70 -32 123 -130
123 -226 l0 -25 -155 0 c-169 0 -175 -2 -135 -53 40 -50 131 -57 180 -12 16
14 19 13 44 -20 15 -19 26 -43 24 -52 -6 -31 -85 -63 -155 -63 -148 0 -233 86
-233 235 0 105 39 173 125 218 42 22 130 21 182 -2z m835 -18 c64 -46 93 -109
93 -203 0 -64 -5 -83 -28 -123 -40 -67 -94 -100 -172 -105 -104 -7 -175 29
-217 111 -25 50 -34 138 -19 193 16 59 62 117 112 143 36 18 57 21 116 19 61
-3 78 -8 115 -35z m428 27 c62 -18 65 -22 45 -74 -10 -25 -19 -46 -20 -46 -1
0 -22 7 -45 15 -79 28 -150 13 -150 -30 0 -20 25 -31 98 -45 82 -17 123 -45
141 -97 13 -36 13 -45 -2 -84 -26 -67 -72 -93 -168 -98 -77 -3 -170 17 -185
40 -5 8 24 99 31 99 2 0 22 -9 46 -20 49 -22 138 -27 157 -8 24 24 13 47 -25
57 -21 6 -63 17 -95 26 -77 21 -108 57 -108 129 0 64 24 100 84 127 46 21 140
25 196 9z m1188 -23 c48 -31 86 -99 95 -166 9 -73 12 -71 -154 -71 -162 0
-168 -3 -129 -53 38 -48 115 -55 171 -16 25 18 25 17 54 -18 31 -40 29 -52
-19 -87 -33 -25 -146 -34 -201 -16 -89 29 -147 118 -147 225 0 99 43 173 127
219 48 26 152 18 203 -17z m867 22 c61 -17 66 -24 48 -67 -21 -52 -25 -54 -66
-37 -71 30 -154 12 -146 -31 3 -13 19 -23 49 -32 150 -43 151 -43 171 -75 15
-24 19 -44 16 -84 -4 -60 -22 -85 -81 -115 -74 -38 -276 -10 -276 37 0 8 7 30
17 49 16 35 16 35 46 19 65 -33 187 -26 187 11 0 23 -24 35 -99 51 -87 18
-125 43 -141 91 -23 68 16 150 85 180 37 16 136 18 190 3z m618 0 c12 -6 32
-21 45 -32 l22 -20 0 26 c0 26 2 27 55 27 l55 0 0 -218 c0 -258 -8 -300 -70
-356 -47 -42 -74 -51 -160 -51 -73 0 -143 17 -179 44 l-23 18 22 44 c12 24 24
45 25 47 1 2 18 -7 38 -18 45 -27 127 -37 167 -20 34 14 60 55 60 95 l0 27
-35 -22 c-30 -19 -47 -22 -105 -18 -58 3 -75 8 -107 34 -125 99 -107 322 31
385 46 21 126 25 159 8z m795 -5 c86 -36 131 -110 132 -217 0 -146 -84 -237
-220 -237 -135 0 -220 91 -220 235 0 105 42 177 125 216 49 23 133 24 183 3z
m-10468 -224 l0 -231 -57 3 -58 3 -3 228 -2 227 60 0 60 0 0 -230z m1028 3
l-3 -228 -57 -3 -58 -3 0 231 0 230 60 0 60 0 -2 -227z m8292 -3 l0 -231 -57
3 -58 3 -3 228 -2 227 60 0 60 0 0 -230z m-1958 -597 c29 -26 24 -87 -8 -112
-15 -12 -34 -21 -44 -21 -10 0 -29 9 -44 21 -30 24 -35 72 -10 107 19 27 78
30 106 5z m-5448 -19 c19 -7 20 -24 5 -75 -11 -34 -14 -37 -31 -28 -29 16 -67
2 -79 -28 -16 -42 -5 -53 51 -53 l50 0 0 -50 0 -50 -50 0 -50 0 0 -175 0 -175
-60 0 -60 0 0 175 0 175 -35 0 -35 0 0 50 0 50 35 0 c34 0 35 1 35 40 0 60 41
125 90 143 21 8 115 8 134 1z m5984 -316 l2 -318 -60 0 c-54 0 -60 2 -60 21
l0 20 -29 -20 c-60 -43 -160 -36 -221 16 -46 38 -72 98 -78 176 -8 110 39 200
123 238 54 25 103 24 158 -5 l47 -23 0 109 0 109 58 -3 57 -3 3 -317z m992 2
l0 -320 -55 0 c-49 0 -55 2 -55 21 l0 21 -33 -21 c-141 -87 -300 24 -300 209
0 80 34 162 80 196 67 49 159 55 215 14 l28 -21 0 104 c0 57 3 107 7 110 3 4
30 7 60 7 l53 0 0 -320z m-8844 265 c69 -20 125 -65 159 -127 25 -45 30 -67
33 -146 4 -88 3 -96 -28 -158 -60 -122 -135 -154 -357 -154 l-143 0 0 300 0
300 143 0 c97 0 159 -5 193 -15z m5974 -80 l0 -55 50 0 50 0 0 -50 0 -50 -50
0 -50 0 0 -114 c0 -129 7 -143 64 -132 33 6 34 5 50 -39 l15 -46 -34 -15 c-66
-27 -137 -12 -185 40 -24 26 -25 34 -28 167 l-4 139 -34 0 -34 0 0 50 0 50 35
0 35 0 0 55 0 55 60 0 60 0 0 -55z m-5407 -60 c68 -32 116 -117 117 -207 l0
-48 -155 0 -154 0 8 -22 c11 -32 68 -68 105 -68 17 0 49 9 70 21 21 11 39 19
40 17 0 -2 14 -18 30 -35 29 -32 29 -33 10 -54 -27 -30 -62 -46 -116 -54 -146
-22 -268 86 -268 237 0 176 161 285 313 213z m425 14 c28 -5 57 -16 66 -22 16
-12 16 -16 -3 -60 l-21 -48 -31 17 c-45 23 -123 24 -146 1 -28 -28 -6 -50 71
-68 129 -32 156 -56 156 -139 0 -95 -65 -145 -190 -144 -77 0 -170 26 -170 48
0 5 7 29 16 52 l16 42 46 -21 c78 -34 172 -23 172 20 0 17 -49 38 -112 47
-127 19 -178 145 -93 230 52 52 124 67 223 45z m407 0 c55 -16 101 -67 114
-129 6 -28 11 -114 11 -190 l0 -140 -56 0 c-47 0 -57 3 -61 20 -5 19 -5 19
-32 -1 -57 -42 -154 -33 -205 20 -34 35 -45 104 -26 151 22 53 62 73 154 77
108 6 108 5 94 43 -18 52 -92 66 -163 30 -22 -11 -40 -20 -41 -20 -1 0 -9 21
-19 46 -21 54 -17 59 57 85 61 21 116 24 173 8z m1123 -26 c144 -89 135 -339
-16 -417 -122 -63 -277 2 -316 133 -9 30 -16 66 -16 81 0 15 7 51 16 81 18 62
79 128 135 147 56 19 144 8 197 -25z m430 22 c28 -9 54 -20 57 -25 4 -6 -1
-30 -10 -55 l-17 -44 -31 16 c-46 23 -135 23 -153 -1 -23 -32 -2 -52 68 -66
90 -17 125 -34 148 -72 40 -66 15 -149 -60 -192 -50 -30 -176 -29 -242 1 -27
12 -48 24 -48 27 0 2 9 25 20 51 19 45 20 45 43 30 13 -8 46 -19 75 -25 67
-12 112 2 112 36 0 24 -19 33 -115 49 -89 15 -132 68 -122 151 12 106 137 160
275 119z m1297 4 c60 -16 129 -92 145 -159 24 -99 -5 -197 -74 -258 -88 -77
-225 -66 -304 23 -85 97 -84 237 2 332 61 66 139 87 231 62z m543 -4 c47 -20
79 -50 105 -100 31 -58 31 -193 0 -251 -56 -105 -182 -145 -265 -84 l-28 21 0
-101 0 -100 -60 0 -60 0 0 310 0 310 55 0 c47 0 55 -3 55 -19 0 -17 3 -17 47
5 54 28 99 30 151 9z m498 -9 c84 -39 128 -116 127 -220 -2 -143 -86 -230
-223 -230 -140 0 -220 87 -220 239 0 70 37 156 81 188 69 50 158 59 235 23z
m462 -38 l-3 -62 -35 -4 c-84 -9 -100 -44 -100 -217 l0 -125 -60 0 -60 0 0
230 0 230 60 0 c58 0 60 -1 60 -25 l0 -26 22 21 c22 20 66 37 101 39 16 1 18
-7 15 -61z m1270 35 c69 -52 81 -95 82 -295 l0 -148 -60 0 -60 0 0 134 c0 139
-10 190 -40 206 -32 17 -78 11 -107 -14 l-28 -24 -3 -151 -3 -151 -60 0 -59 0
0 230 0 230 55 0 c48 0 55 -2 55 -20 0 -11 1 -20 3 -20 1 0 25 12 52 26 59 30
130 29 173 -3z m1207 1 c26 -13 47 -36 62 -64 21 -40 23 -55 23 -212 l0 -168
-55 0 c-49 0 -55 2 -55 20 0 20 -1 20 -31 -2 -39 -29 -129 -31 -175 -4 -91 54
-84 202 11 242 20 8 67 14 110 14 73 0 75 1 75 24 0 59 -90 84 -165 46 -21
-11 -40 -19 -41 -17 -1 1 -11 21 -22 43 -20 39 -20 43 -4 57 52 46 196 57 267
21z m968 15 c43 -12 101 -59 123 -100 19 -38 34 -120 27 -147 -5 -21 -10 -22
-154 -22 -158 0 -167 -3 -131 -46 39 -48 105 -58 162 -23 l34 21 28 -33 c16
-19 27 -41 26 -49 -2 -8 -23 -26 -48 -40 -61 -34 -165 -35 -227 -2 -78 41
-115 110 -116 213 0 163 128 269 276 228z m465 0 c28 -5 57 -16 66 -22 16 -11
15 -16 -4 -59 l-20 -46 -32 16 c-45 22 -122 22 -145 -1 -29 -29 -5 -50 83 -72
120 -31 144 -54 144 -136 0 -92 -65 -142 -185 -143 -66 -1 -133 13 -164 33
-13 8 -13 15 -1 51 8 23 19 44 25 46 6 3 29 -3 51 -12 74 -31 164 -18 164 23
0 17 -49 38 -112 47 -91 13 -144 77 -132 156 16 103 120 150 262 119z m-7558
-229 l0 -230 -60 0 -60 0 0 230 0 230 60 0 60 0 0 -230z m1320 113 c24 -65 49
-134 57 -153 l15 -35 55 153 55 152 60 0 c53 0 59 -2 53 -17 -4 -10 -50 -130
-102 -268 -96 -255 -122 -304 -173 -330 -41 -21 -118 -19 -157 5 l-32 19 19
43 c14 31 24 42 37 39 56 -11 86 -5 104 19 l19 25 -85 222 c-47 123 -85 227
-85 233 0 6 26 10 59 10 l59 0 42 -117z m2860 -25 c0 -157 8 -187 53 -202 40
-14 79 3 99 44 14 28 18 61 18 168 l0 132 60 0 60 0 0 -230 0 -230 -55 0 c-48
0 -55 2 -55 20 0 25 -4 25 -38 0 -15 -11 -48 -23 -74 -26 -61 -9 -128 22 -160
74 -21 34 -23 50 -26 215 l-4 177 61 0 61 0 0 -142z m1040 -88 l0 -230 -60 0
-60 0 0 230 0 230 60 0 60 0 0 -230z m2594 -91 c21 -16 26 -29 26 -64 0 -35
-5 -48 -26 -64 -15 -12 -34 -21 -44 -21 -10 0 -29 9 -44 21 -21 16 -26 29 -26
64 0 35 5 48 26 64 15 12 34 21 44 21 10 0 29 -9 44 -21z m-5055 -2056 c3 -4
13 -9 21 -11 33 -6 61 -26 55 -40 -4 -10 0 -12 10 -8 11 4 14 2 8 -7 -11 -17
-4 -51 13 -60 12 -7 12 -11 -1 -30 -17 -24 -19 -37 -7 -37 5 0 13 10 19 22 6
14 12 18 16 10 4 -6 -8 -23 -29 -39 -20 -15 -45 -35 -54 -44 -10 -9 -55 -36
-100 -59 -45 -24 -87 -48 -93 -54 -66 -62 -191 -124 -267 -133 -33 -4 -62 -14
-80 -30 -15 -12 -32 -23 -38 -23 -6 0 -12 -3 -14 -7 -1 -5 -37 -37 -78 -73
-115 -99 -118 -105 -67 -135 17 -10 36 -24 40 -32 4 -7 14 -13 22 -13 7 0 22
-11 32 -24 10 -13 28 -26 39 -30 11 -3 34 -19 52 -35 17 -16 41 -32 52 -36 11
-3 28 -17 39 -31 10 -13 23 -24 28 -24 6 0 23 -12 38 -26 24 -22 82 -54 98
-54 2 0 7 35 10 78 10 128 28 190 120 416 25 61 62 128 72 128 6 1 15 14 22
29 9 21 16 27 29 22 13 -5 16 -2 12 8 -7 19 56 83 74 76 10 -4 9 -6 -2 -7 -8
-1 -26 -15 -40 -33 -13 -18 -17 -26 -7 -18 10 8 21 11 24 7 4 -4 1 -12 -7 -17
-13 -9 -13 -10 0 -6 8 2 15 12 16 23 2 35 4 39 14 24 8 -12 10 -12 16 3 3 9
14 17 24 17 22 0 34 -43 20 -70 -6 -12 -12 -102 -14 -208 -2 -103 -7 -194 -10
-202 -3 -8 -2 -28 3 -45 6 -20 10 -23 10 -11 1 19 2 19 14 2 10 -14 14 -73 15
-230 2 -246 0 -266 -31 -260 -21 4 -21 4 -2 -5 11 -5 23 -10 26 -10 10 -1 22
40 24 82 2 36 10 55 19 46 8 -8 9 -83 2 -106 -5 -14 -3 -23 3 -23 16 0 13 -12
-13 -43 l-23 -28 -35 20 c-20 11 -77 46 -126 79 l-91 60 -127 -169 c-114 -149
-163 -205 -148 -165 6 16 -68 116 -81 109 -5 -4 -7 -3 -3 2 10 11 -4 35 -62
104 -43 52 -56 61 -100 70 -69 15 -70 15 -70 -14 0 -14 -6 -25 -12 -25 -10 0
-10 -2 -1 -8 9 -5 -10 -19 -55 -39 -118 -54 -156 -70 -187 -78 -30 -7 -30 -7
-6 -16 13 -5 26 -7 29 -4 3 3 -1 5 -9 6 -8 0 -1 5 16 10 22 6 31 5 38 -6 4 -8
15 -15 22 -15 8 0 15 -5 15 -11 0 -11 24 -39 34 -39 2 0 6 10 9 23 2 12 5
-195 6 -459 l1 -482 -21 -5 c-17 -5 -20 -2 -16 14 3 10 2 19 -3 19 -13 0 -19
-39 -6 -45 8 -3 8 -7 -1 -11 -15 -7 -17 -24 -4 -24 5 0 12 9 16 19 9 29 35 14
35 -19 0 -16 -6 -31 -12 -34 -10 -5 -10 -7 0 -12 6 -3 12 -19 12 -35 0 -32 26
-41 37 -12 6 15 7 15 14 -3 4 -10 8 -32 8 -48 l1 -29 -23 21 c-33 31 -38 28
-37 -20 1 -24 1 -127 1 -229 0 -172 -2 -187 -18 -191 -10 -3 -19 -14 -20 -26
-1 -14 3 -19 13 -15 8 3 14 0 14 -6 0 -6 -7 -11 -17 -11 -9 0 -14 -2 -11 -5
10 -10 118 7 111 18 -3 6 -1 7 5 3 6 -3 54 5 107 19 54 14 100 25 104 26 3 0
-3 5 -14 10 -16 7 -13 8 11 4 34 -6 213 61 319 119 120 66 140 79 199 124 283
214 454 485 521 825 l18 86 61 -55 c210 -187 485 -329 718 -370 374 -65 723
147 893 543 133 308 167 745 79 996 -8 22 -12 42 -10 45 7 7 57 -164 72 -247
18 -100 17 -311 -1 -438 -78 -548 -369 -911 -774 -965 -271 -36 -625 103 -935
367 l-76 65 -5 -27 c-66 -332 -171 -547 -363 -741 -292 -296 -773 -487 -1306
-518 l-119 -7 6 29 c4 16 14 94 22 174 9 80 22 189 29 243 l12 97 -34 9 c-53
15 -75 47 -68 99 3 23 13 54 23 68 17 26 16 27 -14 53 -61 52 -65 97 -11 150
70 68 -2 137 -165 158 -73 9 -90 37 -85 133 4 64 11 88 50 165 26 50 58 119
72 155 15 36 31 74 36 85 5 11 40 104 78 206 l69 186 -40 36 c-39 36 -39 36
-35 99 3 56 9 71 55 138 27 41 76 120 108 175 32 55 69 117 82 137 12 21 23
40 23 43 0 3 18 33 40 66 22 33 40 63 40 66 0 6 63 87 83 108 15 15 -3 -17
-22 -39 -15 -18 -15 -18 9 -12 14 4 21 4 15 -1 -12 -9 -12 -58 -1 -92 5 -15 5
-21 -2 -17 -5 3 -13 -1 -16 -10 -3 -8 -2 -12 4 -9 6 3 10 -1 10 -9 0 -8 -7
-19 -16 -24 -15 -8 -15 -10 1 -16 23 -8 35 1 29 22 -5 14 -4 14 4 2 6 -8 8
-18 5 -23 -3 -5 4 -6 16 -2 11 3 21 2 21 -3 0 -5 -9 -12 -20 -15 -11 -3 -20
-9 -20 -14 0 -15 50 -9 60 7 5 8 10 11 10 6 0 -6 6 -3 13 6 6 9 50 43 97 77
47 33 90 65 97 71 7 5 19 10 28 10 23 0 18 25 -9 39 -30 17 -66 80 -66 118 0
37 19 93 31 93 5 0 9 5 9 11 0 17 86 94 170 152 91 63 143 88 210 101 36 7
142 -1 149 -11z m168 -1577 c-4 -9 -1 -13 6 -10 16 6 50 -57 42 -77 -3 -9 2
-22 11 -30 15 -13 16 -11 10 11 -7 24 -7 24 18 -5 14 -16 23 -36 21 -44 -4 -9
0 -11 10 -7 19 7 52 -41 38 -55 -6 -6 -14 0 -23 16 -12 23 -27 29 -47 23 -5
-2 -7 -16 -6 -33 1 -16 -1 -22 -3 -12 -11 38 -24 2 -23 -66 1 -96 11 -123 27
-71 15 53 23 152 11 159 -5 4 -9 11 -9 17 0 14 28 -10 42 -35 14 -26 10 -187
-4 -205 -8 -9 -8 -16 0 -24 7 -7 12 -25 12 -41 0 -33 18 -55 40 -50 10 3 11 2
4 -4 -21 -15 -25 -60 -8 -78 16 -15 16 -19 1 -50 -9 -18 -13 -42 -10 -54 3
-13 1 -21 -6 -21 -7 0 -9 6 -5 13 4 6 -6 0 -22 -15 -15 -15 -25 -31 -20 -35 4
-4 11 -1 16 7 5 8 12 12 15 8 9 -9 -37 -78 -52 -78 -7 0 -10 -6 -7 -13 2 -7
-7 -26 -21 -43 -15 -16 -43 -49 -63 -74 -174 -213 -444 -373 -647 -382 l-60
-3 3 55 c1 30 5 85 8 121 l6 66 -30 12 c-17 7 -33 19 -36 27 -5 14 29 44 51
44 17 0 21 32 37 313 l15 248 34 47 c95 128 341 329 507 413 61 31 126 39 117
15z m443 -1307 c0 -11 -42 -18 -71 -12 -21 4 -30 1 -35 -12 -4 -10 -1 -21 7
-25 16 -10 14 -13 -26 -26 -22 -7 -30 -16 -30 -34 -1 -18 -30 -54 -104 -128
-56 -57 -123 -136 -148 -175 -25 -40 -55 -82 -66 -94 -11 -13 -17 -26 -14 -30
4 -3 7 -1 7 5 0 17 17 15 24 -4 3 -8 2 -12 -4 -9 -6 3 -10 2 -10 -4 0 -5 5
-13 11 -17 8 -5 7 -9 -1 -14 -8 -5 -10 -15 -5 -26 10 -25 10 -60 1 -106 -5
-23 -3 -50 4 -72 9 -29 9 -39 -3 -57 -11 -14 -13 -29 -7 -49 5 -16 6 -31 2
-34 -3 -3 4 -6 14 -6 11 0 24 -4 30 -9 23 -23 282 -60 424 -61 46 0 61 -3 50
-10 -12 -8 -11 -10 8 -10 12 0 22 -5 22 -12 0 -8 -66 -10 -259 -5 -170 5 -262
4 -266 -3 -4 -6 9 -10 32 -11 21 -1 49 -5 63 -9 32 -11 -66 -3 -180 15 -188
28 -304 84 -324 154 -6 22 -6 51 1 86 22 103 155 341 176 313 6 -9 7 -8 3 5
-7 23 11 60 26 51 6 -4 8 -3 4 4 -8 13 42 74 55 67 5 -4 7 0 4 7 -5 14 161
195 171 186 4 -5 -31 -43 -81 -86 -8 -7 -15 -18 -15 -25 0 -8 3 -8 8 -2 4 6
41 40 82 75 41 36 78 70 82 75 4 6 8 6 8 1 0 -5 9 1 19 13 11 12 21 21 23 19
2 -1 19 9 38 24 71 53 145 85 199 84 28 -1 51 -4 51 -7z"/>
<path d="M9969 10957 c-86 -58 -114 -146 -114 -357 0 -211 28 -299 114 -357
44 -30 122 -31 168 -3 82 50 118 158 118 360 0 202 -36 310 -118 360 -46 28
-124 27 -168 -3z"/>
<path d="M7564 10703 c-43 -119 -80 -220 -82 -225 -2 -4 71 -8 163 -8 155 0
167 1 160 18 -4 9 -40 109 -82 222 -41 113 -76 206 -77 207 -1 2 -38 -95 -82
-214z"/>
<path d="M11140 9342 c-17 -17 -30 -44 -35 -70 -20 -120 85 -197 167 -123 31
28 33 33 33 96 0 63 -2 68 -33 96 -44 39 -93 40 -132 1z"/>
<path d="M2130 9343 c-39 -35 -49 -87 -26 -135 41 -86 169 -74 195 17 30 110
-87 192 -169 118z"/>
<path d="M5627 9349 c-54 -42 -58 -150 -6 -201 81 -81 196 22 160 142 -22 73
-99 103 -154 59z"/>
<path d="M7810 9343 c-51 -46 -53 -151 -5 -199 26 -26 81 -32 116 -14 28 16
49 63 49 114 0 58 -17 94 -51 112 -42 21 -75 17 -109 -13z"/>
<path d="M10037 9349 c-56 -43 -60 -148 -7 -201 76 -76 185 6 165 124 -15 85
-97 125 -158 77z"/>
<path d="M13221 9356 c-49 -27 -65 -99 -36 -156 19 -37 43 -50 95 -50 80 0
125 84 88 165 -22 49 -96 69 -147 41z"/>
<path d="M13981 9356 c-34 -19 -50 -54 -51 -109 0 -82 35 -127 100 -127 42 0
67 15 85 50 18 35 20 109 3 145 -22 48 -88 68 -137 41z"/>
<path d="M11274 8331 c-76 -46 -69 -190 12 -228 29 -14 37 -14 70 -2 89 34
100 190 15 233 -39 21 -59 20 -97 -3z"/>
<path d="M12284 8341 c-42 -18 -64 -59 -64 -122 0 -51 4 -63 29 -91 24 -27 36
-33 71 -33 35 0 47 6 71 33 25 28 29 40 29 92 0 51 -4 64 -27 90 -30 32 -75
45 -109 31z"/>
<path d="M3483 8465 c-2 -6 -2 -89 -1 -185 l3 -175 28 1 c15 1 53 2 86 3 73 1
117 28 149 91 41 80 18 193 -51 244 -22 17 -48 22 -119 26 -58 3 -92 1 -95 -5z"/>
<path d="M6061 8337 c-64 -32 -87 -137 -44 -196 32 -43 68 -56 111 -39 89 33
97 189 12 233 -35 18 -48 18 -79 2z"/>
<path d="M7832 8337 c-83 -46 -79 -198 6 -234 52 -22 99 -3 123 51 23 51 24
74 3 126 -24 60 -81 85 -132 57z"/>
<path d="M8361 8337 c-40 -20 -63 -60 -63 -110 -1 -63 17 -103 58 -122 89 -42
165 50 134 163 -8 31 -20 48 -43 62 -37 23 -53 24 -86 7z"/>
<path d="M8853 8340 c-34 -14 -63 -69 -63 -117 0 -59 14 -90 52 -113 41 -25
83 -20 118 15 22 22 25 34 25 95 0 61 -3 73 -25 95 -28 28 -74 39 -107 25z"/>
<path d="M7468 4771 c-5 -14 -8 -41 -6 -61 l3 -37 193 42 c105 23 195 44 198
48 10 9 -51 16 -220 24 l-158 8 -10 -24z"/>
</g>
</svg>
