<?xml version="1.0" standalone="no"?>
<!DOCTYPE svg PUBLIC "-//W3C//DTD SVG 20010904//EN"
 "http://www.w3.org/TR/2001/REC-SVG-20010904/DTD/svg10.dtd">
<svg version="1.0" xmlns="http://www.w3.org/2000/svg"
 width="1905.000000pt" height="1557.000000pt" viewBox="0 0 1905.000000 1557.000000"
 preserveAspectRatio="xMidYMid meet">
<metadata>
Created by potrace 1.16, written by Peter Selinger 2001-2019
</metadata>
<g transform="translate(0.000000,1557.000000) scale(0.100000,-0.100000)"
fill="#000000" stroke="none">
<path d="M16483 15138 l-253 -253 511 -512 c281 -282 512 -513 514 -513 1 0
118 116 260 257 l257 258 -513 507 c-283 279 -516 507 -519 508 -3 0 -119
-114 -257 -252z m855 -564 c82 -34 131 -111 132 -205 0 -63 -36 -145 -63 -143
-9 1 -13 -4 -10 -12 5 -14 -12 -20 -20 -6 -2 4 -2 2 -1 -5 6 -24 -49 -47 -116
-47 -73 0 -128 22 -169 69 -74 86 -67 230 16 307 57 54 159 73 231 42z"/>
<path d="M10775 15228 c-3 -7 -4 -395 -3 -863 l3 -850 693 -3 692 -2 -2 187
-3 188 -447 3 -448 2 0 155 0 155 380 0 380 0 0 185 0 185 -380 0 -380 0 0
145 0 145 435 0 435 0 -2 188 -3 187 -673 3 c-533 2 -674 0 -677 -10z"/>
<path d="M12290 14370 l0 -860 240 0 240 0 0 860 0 860 -240 0 -240 0 0 -860z"/>
<path d="M490 14110 l0 -1050 1050 0 1050 0 0 1050 0 1050 -1050 0 -1050 0 0
-1050z m1368 683 l2 -333 -335 0 -335 0 145 -290 c80 -159 145 -295 145 -300
0 -17 -77 -47 -170 -66 -150 -30 -309 -4 -450 73 -101 56 -219 180 -268 284
-68 141 -72 178 -72 599 l0 370 668 -2 667 -3 3 -332z m672 -373 c0 -13 -633
-1280 -640 -1280 -7 0 -640 1267 -640 1280 0 7 221 10 640 10 419 0 640 -3
640 -10z"/>
<path d="M6134 15066 c-3 -8 -4 -40 -2 -71 1 -30 2 -55 2 -55 -1 0 -18 7 -38
15 -74 31 -127 -11 -134 -105 -5 -73 10 -116 50 -136 33 -17 79 -11 99 12 15
19 29 18 29 -2 0 -9 7 -14 18 -12 15 3 17 20 17 183 0 163 -2 180 -18 183 -9
2 -20 -3 -23 -12z m-26 -152 c18 -13 22 -24 22 -74 0 -67 -23 -100 -71 -100
-36 0 -51 21 -57 79 -8 92 44 139 106 95z"/>
<path d="M2961 14908 c28 -79 55 -155 61 -170 8 -21 17 -28 37 -28 26 0 30 6
84 163 32 89 57 165 57 170 0 4 -9 7 -19 7 -16 0 -28 -25 -68 -145 -26 -80
-51 -145 -55 -145 -5 0 -8 4 -8 10 0 5 -21 70 -46 145 -42 122 -49 135 -70
135 -23 0 -23 -1 27 -142z"/>
<path d="M4800 14995 c0 -28 -4 -35 -20 -35 -11 0 -20 -7 -20 -15 0 -8 9 -15
20 -15 19 0 20 -7 20 -89 0 -49 3 -97 6 -106 9 -22 49 -37 80 -29 35 9 30 32
-8 36 l-33 3 -3 93 -3 92 36 0 c24 0 35 4 35 15 0 10 -11 15 -35 15 -33 0 -35
2 -35 35 0 28 -4 35 -20 35 -16 0 -20 -7 -20 -35z"/>
<path d="M3440 14957 c-48 -17 -72 -65 -67 -135 5 -65 31 -104 79 -115 48 -11
108 13 108 44 0 20 -1 21 -25 5 -65 -43 -120 -6 -119 80 0 87 32 107 122 79
38 -12 27 24 -13 41 -40 16 -40 16 -85 1z"/>
<path d="M3673 14955 c-105 -45 -86 -232 26 -249 49 -8 105 6 109 26 3 14 -5
15 -56 11 -52 -5 -62 -3 -81 16 -11 11 -21 32 -21 46 0 25 1 25 85 25 l85 0 0
36 c0 48 -15 73 -55 90 -42 17 -51 17 -92 -1z"/>
<path d="M4344 14963 c-40 -8 -76 -58 -81 -110 -7 -68 16 -119 61 -138 20 -8
43 -15 53 -15 36 0 93 21 93 34 0 11 -14 13 -62 9 -70 -6 -95 9 -100 58 -3 24
-2 24 86 27 l89 3 -6 41 c-9 66 -66 105 -133 91z"/>
<path d="M4612 14959 c-47 -14 -72 -60 -72 -131 0 -50 4 -62 29 -90 26 -29 35
-33 77 -32 36 1 52 6 66 24 23 28 13 45 -15 25 -12 -8 -36 -15 -54 -15 -26 0
-36 6 -48 30 -37 72 -3 166 59 157 17 -2 39 -7 49 -12 13 -5 17 -2 17 13 0 19
-12 27 -60 37 -8 2 -30 -1 -48 -6z"/>
<path d="M5031 14957 c-46 -16 -73 -56 -78 -114 -6 -67 20 -114 71 -131 111
-36 196 63 156 182 -19 59 -84 86 -149 63z m96 -54 c10 -15 18 -46 18 -68 0
-61 -26 -95 -74 -95 -43 0 -57 12 -71 61 -12 40 3 104 28 118 34 20 80 13 99
-16z"/>
<path d="M5620 14957 c-20 -7 -36 -20 -38 -31 -3 -15 0 -17 14 -11 11 5 37 10
60 13 46 4 68 -13 62 -50 -2 -18 -10 -23 -37 -25 -80 -4 -111 -26 -111 -78 0
-61 61 -90 121 -59 23 11 34 13 37 5 2 -6 10 -11 18 -11 11 0 14 20 14 101 0
55 -4 109 -10 119 -9 17 -60 41 -84 39 -6 0 -27 -5 -46 -12z"/>
<path d="M6324 14959 c-51 -15 -68 -42 -72 -118 -4 -61 -2 -70 22 -98 41 -48
153 -56 176 -12 10 17 6 18 -54 12 -56 -5 -66 -3 -85 16 -11 11 -21 32 -21 46
0 24 2 24 88 27 l87 3 -3 35 c-5 50 -19 70 -57 86 -38 16 -38 16 -81 3z"/>
<path d="M4110 14470 c0 -23 -4 -30 -20 -30 -11 0 -20 -6 -20 -14 0 -8 9 -18
20 -21 18 -6 20 -15 20 -93 0 -109 14 -135 68 -130 26 2 38 8 40 21 3 14 -1
17 -21 12 -19 -5 -28 -2 -36 13 -12 23 -15 172 -3 173 14 1 97 1 109 0 9 -1
13 -33 15 -108 3 -93 5 -108 21 -111 15 -3 17 8 17 127 l0 131 -85 0 -85 0 0
30 c0 23 -4 30 -20 30 -16 0 -20 -7 -20 -30z"/>
<path d="M3086 14424 c-3 -9 -6 -65 -6 -125 0 -90 3 -111 15 -116 9 -3 18 -4
20 -1 2 2 5 43 6 91 3 84 4 90 32 113 33 28 46 29 73 10 16 -12 20 -30 24
-113 4 -78 8 -98 20 -98 12 0 15 19 15 108 0 102 -1 110 -24 128 -31 25 -82
24 -115 -2 l-26 -20 0 20 c0 25 -25 28 -34 5z"/>
<path d="M3340 14427 c0 -8 17 -63 39 -123 59 -167 80 -167 139 1 47 132 48
135 27 135 -16 0 -37 -42 -70 -142 -11 -32 -22 -58 -25 -58 -4 0 -14 25 -24
56 -29 93 -54 144 -71 144 -8 0 -15 -6 -15 -13z"/>
<path d="M3634 14406 c-31 -31 -34 -40 -34 -90 0 -67 15 -103 51 -122 50 -25
167 -11 156 19 -2 6 -10 11 -17 9 -72 -16 -99 -14 -124 11 -14 14 -26 35 -26
46 0 18 8 20 88 23 l87 3 -2 34 c-3 68 -39 101 -109 101 -28 0 -44 -8 -70 -34z"/>
<path d="M3907 14429 c-53 -31 -37 -101 29 -130 56 -24 72 -52 42 -73 -28 -20
-41 -20 -78 -1 -28 15 -30 14 -30 -4 0 -62 141 -51 163 12 12 32 -11 66 -63
92 -28 14 -53 32 -57 41 -13 35 44 57 88 34 16 -9 19 -7 19 9 0 10 -7 22 -16
25 -24 9 -77 7 -97 -5z"/>
<path d="M4426 14418 c-26 -23 -38 -80 -22 -106 3 -6 1 -22 -6 -37 -9 -21 -9
-31 1 -47 10 -16 10 -23 -3 -37 -22 -24 -20 -57 4 -81 16 -16 33 -20 84 -20
80 0 116 23 116 75 0 44 -29 65 -91 65 -60 0 -79 7 -79 31 0 16 5 18 25 13 14
-3 41 -3 60 0 44 9 70 52 61 101 -5 27 -4 33 11 31 10 0 18 6 18 14 0 12 -16
16 -76 18 -68 2 -80 0 -103 -20z"/>
<path d="M4683 14430 c-13 -5 -23 -17 -23 -26 0 -12 6 -15 23 -10 63 18 78 18
97 1 11 -10 20 -28 20 -40 0 -20 -6 -23 -56 -27 -66 -6 -97 -31 -97 -79 0 -58
79 -92 129 -54 25 19 34 19 34 0 0 -8 7 -15 15 -15 12 0 15 18 15 105 0 99 -2
107 -25 130 -26 27 -87 33 -132 15z"/>
<path d="M4961 14426 c-36 -20 -50 -54 -51 -122 0 -55 3 -66 29 -93 22 -23 38
-31 65 -31 47 0 86 19 86 42 0 22 -8 22 -34 3 -28 -21 -53 -18 -81 10 -49 48
-22 175 36 175 11 0 33 -7 49 -15 28 -15 30 -14 30 4 0 39 -79 55 -129 27z"/>
<path d="M5318 14417 c-66 -54 -63 -174 4 -221 31 -22 96 -20 134 3 64 39 73
162 15 213 -41 37 -112 39 -153 5z m112 -17 c24 -13 42 -77 34 -119 -7 -32
-45 -71 -70 -71 -34 0 -65 25 -74 60 -25 91 40 167 110 130z"/>
<path d="M5580 14310 c0 -120 2 -131 18 -128 14 3 17 17 20 95 3 86 5 94 29
113 63 49 91 16 95 -110 3 -81 6 -95 21 -98 15 -3 17 7 17 106 0 101 -2 110
-23 130 -27 26 -82 29 -111 7 -24 -18 -37 -19 -33 -3 1 6 -6 14 -15 16 -16 3
-18 -8 -18 -128z"/>
<path d="M5897 14419 c-50 -39 -59 -149 -16 -203 23 -30 71 -41 134 -32 36 6
45 11 45 28 0 14 -5 18 -16 14 -78 -30 -144 -8 -144 49 0 23 3 24 83 27 l82 3
3 38 c7 81 -103 130 -171 76z"/>
<path d="M6167 14429 c-25 -15 -38 -54 -28 -83 6 -13 28 -32 53 -44 24 -11 50
-28 58 -37 13 -15 12 -20 -9 -36 -28 -23 -43 -24 -81 -4 -28 15 -30 14 -30 -4
0 -26 29 -41 77 -41 47 0 78 20 87 56 10 37 -15 69 -69 93 -25 11 -48 27 -51
36 -14 36 42 58 87 35 16 -9 19 -7 19 9 0 10 -7 22 -16 25 -24 9 -77 7 -97 -5z"/>
<path d="M16963 13870 c1 -87 -20 -138 -77 -187 -48 -43 -96 -56 -175 -51 -66
5 -66 5 -31 -10 115 -49 236 -11 290 92 20 36 32 126 18 126 -5 0 -7 4 -4 8 3
5 -1 28 -8 53 l-14 44 1 -75z"/>
<path d="M4430 13779 c0 -41 -3 -50 -12 -41 -17 17 -64 15 -82 -3 -21 -21 -29
-75 -17 -108 15 -40 50 -53 90 -33 17 9 31 12 31 6 0 -5 5 -10 10 -10 16 0 8
232 -7 238 -9 2 -13 -11 -13 -49z"/>
<path d="M2860 13700 l0 -110 54 0 c71 0 105 26 113 87 11 85 -33 133 -122
133 l-45 0 0 -110z m115 65 c19 -18 25 -35 25 -70 0 -59 -25 -85 -80 -85 l-40
0 0 90 0 90 35 0 c25 0 44 -8 60 -25z"/>
<path d="M3870 13730 c-24 -24 -27 -96 -6 -125 21 -29 92 -27 117 4 23 28 25
88 3 119 -20 29 -85 31 -114 2z"/>
<path d="M5591 13724 c-29 -37 -27 -89 4 -119 30 -31 66 -32 101 -2 21 18 27
32 27 65 0 56 -24 82 -74 82 -29 0 -42 -6 -58 -26z"/>
<path d="M7690 13730 c-31 -31 -28 -102 6 -129 35 -28 69 -26 99 4 29 29 34
88 9 123 -20 29 -85 31 -114 2z"/>
<path d="M522 12854 c3 -102 4 -107 31 -130 49 -42 152 -29 176 23 6 13 11 66
11 118 0 95 0 95 -25 95 -25 0 -25 -1 -25 -90 0 -77 -3 -93 -20 -110 -24 -24
-53 -26 -74 -4 -12 12 -16 37 -16 110 l0 94 -31 0 -31 0 4 -106z"/>
<path d="M2070 12919 c0 -36 -2 -40 -17 -33 -51 23 -107 -4 -118 -57 -19 -86
47 -155 115 -119 13 7 21 7 25 0 3 -5 15 -10 26 -10 18 0 19 8 19 130 l0 130
-25 0 c-23 0 -25 -4 -25 -41z"/>
<path d="M2510 12920 c0 -22 -2 -40 -4 -40 -1 0 -17 5 -34 11 -23 8 -37 7 -54
-2 -36 -19 -47 -40 -48 -92 0 -38 5 -53 25 -72 25 -26 63 -32 96 -15 13 8 19
7 19 0 0 -6 10 -10 23 -8 21 3 22 7 25 131 l3 127 -26 0 c-23 0 -25 -4 -25
-40z"/>
<path d="M862 12884 c-12 -8 -22 -10 -22 -5 0 6 -11 11 -25 11 l-26 0 3 -92
c3 -88 4 -93 26 -96 21 -3 22 0 22 65 0 71 10 93 42 93 24 0 38 -38 38 -106 0
-47 2 -54 20 -54 21 0 26 28 21 125 -4 64 -51 93 -99 59z"/>
<path d="M1345 12891 c-47 -20 -69 -70 -54 -126 12 -43 43 -65 89 -65 35 0 80
28 80 50 0 13 -37 13 -45 0 -11 -18 -64 -11 -74 9 -15 27 -5 31 66 31 68 0 72
4 53 54 -9 25 -56 57 -82 55 -7 0 -22 -4 -33 -8z"/>
<path d="M1681 12888 c-62 -33 -52 -74 25 -100 35 -11 49 -21 49 -35 0 -24
-52 -32 -61 -9 -6 16 -54 23 -54 8 0 -25 30 -45 77 -49 42 -5 54 -2 72 16 31
31 27 67 -9 86 -16 8 -38 15 -48 15 -22 0 -46 23 -35 33 10 11 48 8 60 -4 6
-6 21 -9 33 -7 22 3 22 3 4 25 -24 27 -81 38 -113 21z"/>
<path d="M2211 12892 c-13 -4 -30 -17 -39 -30 -14 -21 -13 -22 9 -22 13 0 32
7 42 14 23 18 57 9 57 -15 0 -13 -10 -20 -37 -24 -73 -12 -85 -21 -81 -62 2
-31 8 -39 31 -47 19 -7 37 -7 57 1 18 7 32 7 36 2 3 -5 14 -9 25 -9 17 0 19 8
19 84 0 55 -4 87 -12 94 -18 14 -78 22 -107 14z"/>
<path d="M1090 12881 c0 -6 14 -48 30 -94 29 -78 33 -84 58 -83 25 1 30 8 59
94 l33 93 -27 -3 c-22 -3 -28 -11 -40 -53 -8 -27 -18 -54 -22 -58 -4 -4 -16
20 -26 53 -15 51 -22 60 -42 60 -12 0 -23 -4 -23 -9z"/>
<path d="M970 12571 l0 -38 -49 5 c-41 4 -52 1 -68 -17 -35 -41 -33 -112 3
-152 19 -21 64 -25 95 -9 13 8 19 7 19 0 0 -6 10 -10 22 -8 22 3 23 7 25 131
l2 127 -25 0 c-21 0 -24 -4 -24 -39z"/>
<path d="M1451 12598 c0 -7 17 -65 37 -128 l38 -115 32 0 33 0 40 120 c21 66
39 124 39 128 0 5 -12 7 -27 5 -25 -3 -30 -10 -52 -85 -13 -46 -27 -83 -31
-83 -4 0 -18 37 -32 83 -23 73 -28 82 -52 85 -17 2 -26 -1 -25 -10z"/>
<path d="M1075 12514 c-57 -62 -16 -164 65 -164 36 0 90 30 90 51 0 14 -28 11
-54 -6 -27 -18 -76 -6 -76 19 0 17 22 23 83 21 44 -1 47 1 47 26 0 14 -9 38
-21 53 -29 37 -99 37 -134 0z"/>
<path d="M1698 12529 c-24 -14 -23 -49 1 -49 10 0 24 7 31 15 18 22 60 20 60
-4 0 -20 -18 -31 -54 -31 -32 0 -66 -28 -66 -55 0 -42 23 -54 102 -53 l73 1
-2 80 c-1 43 -8 85 -14 93 -13 16 -105 19 -131 3z"/>
<path d="M2095 12515 c-36 -35 -35 -102 1 -139 34 -33 89 -35 128 -5 47 37 26
53 -32 23 -36 -18 -72 -6 -72 24 0 16 8 18 65 15 l65 -3 0 29 c0 15 -9 40 -21
55 -29 36 -99 37 -134 1z"/>
<path d="M490 12210 l0 -30 1050 0 1050 0 0 30 0 30 -1050 0 -1050 0 0 -30z"/>
<path d="M0 5900 l0 -5900 859 0 c790 0 862 1 889 17 28 16 31 16 55 0 25 -16
556 -17 8637 -17 l8610 0 0 5900 0 5900 -9525 0 -9525 0 0 -5900z m9830 5261
c74 -28 132 -71 169 -128 42 -63 55 -113 55 -208 0 -153 -42 -227 -260 -460
l-149 -160 223 -3 222 -2 0 -115 0 -115 -400 0 -400 0 0 91 0 90 228 244 c132
141 240 265 256 295 37 67 44 143 18 189 -27 49 -73 71 -152 71 -77 0 -157
-34 -192 -81 -12 -16 -25 -29 -28 -29 -3 0 -45 29 -93 63 l-87 64 34 45 c91
118 243 182 416 174 52 -3 106 -12 140 -25z m915 13 c162 -42 271 -168 327
-376 30 -116 30 -346 -1 -461 -46 -174 -132 -290 -258 -350 -63 -29 -76 -32
-169 -32 -96 0 -103 2 -176 38 -125 61 -201 163 -250 334 -20 67 -23 102 -23
243 0 184 16 263 76 382 92 182 284 272 474 222z m936 2 c87 -19 136 -45 192
-101 63 -63 89 -134 89 -245 0 -159 -41 -232 -262 -468 l-147 -157 223 -3 224
-2 0 -115 0 -115 -400 0 -400 0 0 93 1 92 229 244 c247 264 284 315 285 396 1
107 -41 148 -156 153 -89 5 -150 -18 -199 -75 -19 -21 -35 -31 -43 -27 -6 4
-47 32 -89 63 -86 61 -86 60 -22 131 109 121 295 174 475 136z m-5533 -118
l-3 -113 -275 -1 -275 -1 0 -128 0 -127 240 -2 240 -1 3 -107 3 -108 -246 0
-246 0 3 -137 3 -138 288 -3 287 -2 0 -110 0 -110 -410 0 -410 0 0 600 0 600
400 0 401 0 -3 -112z m462 -488 l0 -600 -125 0 -125 0 0 600 0 600 125 0 125
0 0 -600z m1050 491 c0 -86 -3 -110 -15 -114 -8 -4 -133 -6 -277 -5 l-263 1
-3 -157 -3 -156 246 0 245 0 0 -115 0 -116 -232 1 c-128 1 -239 1 -245 1 -10
-1 -13 -51 -13 -216 l0 -215 -120 0 -120 0 0 600 0 600 400 0 400 0 0 -109z
m740 2 c24 -60 130 -328 236 -596 107 -269 194 -490 194 -493 0 -2 -58 -4
-129 -4 l-128 0 -28 78 c-15 42 -36 101 -47 130 l-19 52 -244 0 -244 0 -19
-52 c-11 -29 -32 -88 -48 -130 l-29 -78 -123 0 c-121 0 -124 0 -119 21 3 12
108 282 234 600 l228 579 122 0 121 0 42 -107z m4414 80 c-10 -16 -93 -145
-184 -288 -92 -143 -188 -293 -213 -332 l-47 -73 140 0 140 0 0 110 0 110 115
0 115 0 0 -110 0 -109 88 -3 87 -3 0 -110 0 -110 -87 -3 -88 -3 0 -124 0 -125
-120 0 -120 0 0 125 0 125 -285 0 -285 0 0 93 0 92 251 383 252 382 129 0 130
0 -18 -27z m-8577 -1506 c45 -44 10 -127 -53 -127 -70 0 -99 76 -48 127 20 20
31 24 57 19 17 -4 37 -12 44 -19z m9326 -9 c38 -45 3 -118 -59 -118 -60 0 -92
57 -63 111 22 42 89 46 122 7z m-5405 -325 l-3 -318 -57 -3 -58 -3 0 321 0
320 60 0 60 0 -2 -317z m3860 0 l-3 -318 -53 -3 c-46 -3 -54 0 -59 17 -5 19
-5 19 -36 0 -46 -28 -140 -26 -189 4 -105 63 -139 224 -74 344 37 67 83 96
160 101 53 3 66 0 99 -22 l37 -25 0 109 0 110 60 0 60 0 -2 -317z m702 -3 l0
-320 -60 0 -60 0 0 320 0 320 60 0 60 0 0 -320z m1600 0 l0 -320 -60 0 -60 0
0 320 0 320 60 0 60 0 0 -320z m-12372 -17 l-3 -298 -60 0 -60 0 -3 298 -2
297 65 0 65 0 -2 -297z m13346 201 l58 -95 53 86 c29 48 57 91 62 96 6 6 38 9
72 7 l62 -3 -87 -135 c-48 -74 -87 -139 -87 -145 0 -7 173 -287 187 -303 2 -1
46 65 99 148 l97 149 -90 141 c-50 77 -90 142 -90 145 0 3 31 5 68 5 l69 0 54
-87 c30 -49 59 -88 63 -88 5 0 34 39 64 88 l54 87 64 0 c35 0 64 -2 64 -5 0
-2 -38 -65 -85 -139 -47 -73 -85 -138 -85 -144 0 -5 43 -76 95 -156 65 -102
90 -148 81 -152 -7 -3 -39 -4 -71 -2 l-58 3 -59 95 c-32 52 -61 96 -66 98 -4
1 -23 -24 -42 -55 -19 -32 -47 -77 -63 -101 l-28 -43 -137 3 -136 3 -64 102
-64 103 -62 -103 -62 -102 -67 -3 c-42 -2 -67 1 -67 7 0 6 41 73 90 149 50 77
90 144 90 151 0 7 -36 69 -81 138 -44 69 -83 132 -86 139 -4 11 10 14 63 14
l69 0 59 -96z m1026 -204 l0 -300 -60 0 -60 0 0 300 0 300 60 0 60 0 0 -300z
m-6015 215 l0 -50 50 -5 50 -5 3 -52 3 -53 -53 0 -53 0 5 -115 c6 -137 14
-148 81 -121 13 6 19 -3 29 -40 12 -43 12 -48 -5 -60 -24 -17 -122 -18 -155
-1 -13 7 -35 28 -47 46 -21 31 -23 45 -23 162 l0 129 -36 0 -35 0 3 53 c3 51
4 52 36 55 32 3 32 4 32 58 l0 55 58 -3 57 -3 0 -50z m-7905 -67 c72 -49 75
-59 78 -264 l3 -185 -58 3 -58 3 -2 147 c-1 157 -8 183 -50 199 -34 13 -89 -5
-106 -34 -7 -13 -14 -79 -17 -167 l-5 -145 -57 -3 -58 -3 0 231 0 230 55 0
c48 0 55 -3 55 -19 0 -19 2 -19 43 4 56 33 131 34 177 3z m458 -3 c40 -23 42
-23 42 -4 0 16 7 19 56 19 l55 0 -3 -242 c-3 -216 -5 -247 -22 -278 -42 -77
-95 -104 -206 -105 -73 0 -93 4 -142 28 l-58 28 25 49 25 49 35 -20 c20 -12
60 -23 92 -26 78 -6 118 18 131 79 5 24 8 44 6 46 -1 2 -17 -6 -35 -17 -48
-30 -140 -28 -194 2 -140 79 -137 319 4 394 60 31 132 31 189 -2z m530 10 c76
-32 121 -101 129 -197 l6 -58 -157 0 c-86 0 -156 -2 -156 -5 0 -19 32 -63 55
-75 39 -21 101 -17 135 9 l29 21 31 -41 c31 -38 32 -41 15 -59 -52 -58 -208
-67 -283 -17 -23 14 -54 48 -69 74 -24 42 -28 58 -28 128 0 86 19 138 67 182
55 51 153 68 226 38z m542 -4 c22 -12 44 -36 60 -67 24 -46 25 -57 25 -214 l0
-165 -57 -3 -58 -3 -1 133 c0 152 -11 197 -52 216 -35 17 -91 1 -110 -31 -7
-13 -14 -79 -17 -167 l-5 -145 -57 -3 -58 -3 0 231 0 230 55 0 c48 0 55 -3 55
-19 0 -19 2 -19 43 4 52 31 127 33 177 6z m688 4 c76 -32 118 -97 129 -195 l6
-60 -157 0 c-170 0 -176 -2 -135 -53 38 -49 132 -55 179 -12 16 15 20 13 50
-25 31 -39 32 -42 15 -60 -54 -60 -211 -68 -287 -15 -144 100 -125 351 32 419
46 20 121 20 168 1z m462 -45 c0 -58 -1 -60 -25 -60 -33 0 -80 -24 -91 -47 -5
-10 -11 -81 -14 -158 l-5 -140 -57 -3 -58 -3 0 231 0 230 55 0 c53 0 55 -1 55
-27 l0 -26 23 21 c26 24 63 40 95 41 20 1 22 -3 22 -59z m577 34 c71 -53 87
-114 81 -324 l-3 -115 -55 0 c-49 0 -55 2 -54 21 0 21 0 21 -34 -3 -46 -31
-132 -32 -180 -3 -59 36 -80 126 -42 187 27 46 69 63 166 70 80 6 84 7 78 27
-13 42 -35 56 -88 56 -28 0 -64 -7 -80 -15 -39 -21 -41 -20 -61 25 -16 35 -17
43 -4 55 47 48 221 60 276 19z m710 15 c38 -14 80 -56 106 -104 17 -31 22 -58
22 -120 0 -104 -27 -164 -94 -207 -41 -26 -53 -29 -113 -26 -46 2 -73 9 -86
21 -11 10 -22 15 -25 10 -2 -4 -5 -44 -5 -88 -1 -44 -1 -86 -2 -92 0 -9 -18
-13 -55 -13 l-55 0 0 310 0 310 55 0 c48 0 55 -2 55 -20 0 -18 2 -18 36 5 40
27 110 34 161 14z m473 -11 c33 -17 51 -35 68 -68 20 -41 22 -58 22 -212 l0
-168 -55 0 c-52 0 -55 1 -55 25 l0 26 -22 -21 c-30 -27 -57 -33 -125 -28 -49
4 -61 10 -90 41 -28 32 -33 44 -33 88 0 99 48 137 181 146 87 6 98 18 59 61
-28 29 -111 31 -157 3 -22 -14 -33 -16 -36 -8 -3 7 -12 29 -21 49 l-16 37 32
17 c80 41 180 46 248 12z m450 -38 c0 -58 -1 -60 -25 -60 -33 0 -80 -24 -91
-47 -5 -10 -11 -81 -14 -158 l-5 -140 -57 -3 -58 -3 0 231 0 230 55 0 c53 0
55 -1 55 -27 l0 -26 23 21 c26 24 63 40 95 41 20 1 22 -3 22 -59z m335 40 c27
-13 50 -34 66 -63 22 -39 24 -53 27 -214 l4 -173 -56 0 c-54 0 -56 1 -56 27
l0 26 -25 -23 c-37 -35 -145 -40 -193 -10 -84 52 -79 190 9 235 16 9 68 19
115 22 91 6 98 12 63 57 -17 22 -28 26 -71 26 -27 0 -65 -7 -84 -16 -19 -9
-36 -15 -37 -13 -1 2 -11 22 -20 43 -15 32 -16 41 -5 52 44 44 193 58 263 24z
m930 1 c82 -38 127 -115 128 -217 1 -138 -89 -234 -220 -234 -75 0 -99 9 -148
52 -53 46 -75 98 -75 181 0 76 13 116 56 166 57 68 174 91 259 52z m460 8 c61
-17 66 -24 48 -67 -21 -52 -25 -54 -66 -37 -71 30 -154 12 -145 -31 3 -19 12
-23 141 -59 76 -21 100 -56 94 -133 -6 -89 -67 -132 -186 -132 -72 0 -126 12
-156 34 -17 13 -18 17 -5 55 7 23 17 44 21 46 3 3 21 -3 39 -12 64 -32 161
-30 174 4 10 26 -13 41 -93 58 -40 8 -86 24 -101 35 -35 25 -54 79 -45 126 8
44 58 101 99 113 44 13 134 13 181 0z m615 -49 c0 -58 -1 -60 -25 -60 -33 0
-80 -24 -91 -47 -5 -10 -11 -81 -14 -158 l-5 -140 -57 -3 -58 -3 0 231 0 230
55 0 c53 0 55 -1 55 -27 l0 -26 23 21 c26 24 63 40 95 41 20 1 22 -3 22 -59z
m347 41 c70 -32 123 -130 123 -226 l0 -25 -155 0 c-169 0 -175 -2 -135 -53 40
-50 131 -57 180 -12 16 14 19 13 44 -20 15 -19 26 -43 24 -52 -6 -31 -85 -63
-155 -63 -148 0 -233 86 -233 235 0 105 39 173 125 218 42 22 130 21 182 -2z
m835 -18 c64 -46 93 -109 93 -203 0 -64 -5 -83 -28 -123 -40 -67 -94 -100
-172 -105 -104 -7 -175 29 -217 111 -25 50 -34 138 -19 193 16 59 62 117 112
143 36 18 57 21 116 19 61 -3 78 -8 115 -35z m428 27 c62 -18 65 -22 45 -74
-10 -25 -21 -46 -25 -46 -4 0 -24 7 -43 15 -70 29 -147 13 -147 -30 0 -20 25
-31 98 -45 82 -17 123 -45 141 -97 13 -36 13 -45 -2 -84 -26 -67 -72 -93 -168
-98 -77 -3 -170 17 -185 40 -5 8 24 99 31 99 2 0 22 -9 46 -20 49 -22 138 -27
157 -8 24 24 13 47 -25 57 -21 6 -63 17 -95 26 -77 21 -108 57 -108 129 0 64
24 100 84 127 46 21 140 25 196 9z m1191 -25 c49 -35 79 -87 90 -157 13 -80
16 -78 -152 -78 -162 0 -168 -3 -129 -53 38 -48 115 -55 171 -16 25 18 25 17
54 -18 31 -40 29 -52 -19 -87 -33 -25 -146 -34 -201 -16 -51 17 -105 67 -128
119 -40 92 -18 221 49 282 53 48 84 60 156 56 56 -2 74 -8 109 -32z m864 24
c61 -17 66 -24 48 -67 -21 -52 -25 -54 -66 -37 -71 30 -154 12 -146 -31 3 -13
19 -23 49 -32 150 -43 151 -43 171 -75 15 -24 19 -44 16 -84 -4 -60 -22 -85
-81 -115 -74 -38 -276 -10 -276 37 0 8 7 30 17 49 16 35 16 35 46 19 65 -33
187 -26 187 11 0 23 -24 35 -99 51 -87 18 -125 43 -141 91 -23 68 16 150 85
180 37 16 136 18 190 3z m618 0 c12 -6 32 -21 45 -32 l22 -20 0 26 c0 26 2 27
55 27 l55 0 0 -218 c0 -258 -8 -300 -70 -356 -47 -42 -74 -51 -160 -51 -73 0
-143 17 -179 44 l-23 18 22 44 c12 24 23 45 24 46 1 1 24 -9 51 -22 108 -55
215 -15 215 80 l0 27 -35 -22 c-30 -19 -47 -22 -105 -18 -58 3 -75 8 -107 34
-125 99 -107 322 31 385 46 21 126 25 159 8z m795 -5 c86 -36 131 -110 132
-217 0 -146 -84 -237 -220 -237 -135 0 -220 91 -220 235 0 105 42 177 125 216
49 23 133 24 183 3z m-10468 -224 l0 -231 -57 3 -58 3 -3 228 -2 227 60 0 60
0 0 -230z m1028 3 l-3 -228 -57 -3 -58 -3 0 231 0 230 60 0 60 0 -2 -227z
m8292 -3 l0 -231 -57 3 -58 3 -3 228 -2 227 60 0 60 0 0 -230z m-1958 -597
c29 -26 24 -87 -8 -112 -15 -12 -34 -21 -44 -21 -10 0 -29 9 -44 21 -30 24
-35 72 -10 107 19 27 78 30 106 5z m-5448 -19 c19 -7 20 -24 5 -75 -11 -34
-14 -37 -31 -28 -29 16 -67 2 -79 -28 -16 -42 -5 -53 51 -53 l50 0 0 -50 0
-50 -50 0 -50 0 0 -175 0 -175 -60 0 -60 0 0 175 0 175 -35 0 -35 0 0 50 0 50
35 0 c34 0 35 1 35 40 0 60 41 125 90 143 21 8 115 8 134 1z m5984 -316 l2
-318 -60 0 c-54 0 -60 2 -60 21 l0 20 -29 -20 c-60 -43 -160 -36 -221 16 -46
38 -72 98 -78 176 -8 110 39 200 123 238 54 25 103 24 158 -5 l47 -23 0 109 0
109 58 -3 57 -3 3 -317z m992 2 l0 -320 -55 0 c-49 0 -55 2 -55 21 l0 21 -33
-21 c-141 -87 -300 24 -300 209 0 80 34 162 80 196 67 49 159 55 215 14 l28
-21 0 104 c0 57 3 107 7 110 3 4 30 7 60 7 l53 0 0 -320z m-8844 265 c69 -20
125 -65 160 -127 27 -49 29 -61 29 -158 0 -98 -2 -109 -30 -159 -61 -110 -139
-141 -352 -141 l-143 0 0 300 0 300 143 0 c97 0 159 -5 193 -15z m5974 -80 l0
-55 50 0 50 0 0 -50 0 -50 -50 0 -50 0 0 -114 c0 -129 7 -143 64 -132 33 6 34
5 50 -39 l15 -46 -34 -15 c-66 -27 -137 -12 -185 40 -24 26 -25 34 -28 167
l-4 139 -34 0 -34 0 0 50 0 50 35 0 35 0 0 55 0 55 60 0 60 0 0 -55z m-5407
-60 c68 -32 116 -117 117 -207 l0 -48 -154 0 c-147 0 -154 -1 -149 -19 16 -61
105 -88 174 -52 23 12 45 19 48 14 3 -4 17 -20 30 -35 24 -27 24 -28 5 -49
-27 -30 -62 -46 -116 -54 -146 -22 -268 86 -268 237 0 176 161 285 313 213z
m425 14 c28 -5 57 -16 66 -22 16 -12 16 -16 -3 -59 l-20 -47 -31 15 c-45 23
-125 23 -147 1 -28 -28 -6 -50 71 -68 129 -32 156 -56 156 -139 0 -95 -65
-145 -190 -144 -77 0 -170 26 -170 48 0 5 7 29 16 52 l16 42 46 -21 c78 -34
172 -24 172 20 0 17 -49 38 -112 47 -127 19 -178 145 -93 230 52 52 124 67
223 45z m407 0 c55 -16 101 -67 114 -129 6 -28 11 -114 11 -190 l0 -140 -56 0
c-47 0 -57 3 -61 20 -5 19 -5 19 -32 -1 -57 -42 -154 -33 -205 20 -34 35 -45
104 -26 151 22 53 62 73 154 77 108 6 108 5 94 43 -18 52 -92 66 -163 30 -22
-11 -40 -20 -41 -20 -1 0 -9 21 -19 46 -21 54 -17 59 57 85 61 21 116 24 173
8z m1123 -26 c144 -89 135 -339 -16 -417 -122 -63 -277 2 -316 133 -9 30 -16
66 -16 81 0 15 7 51 16 81 18 62 79 128 135 147 56 19 144 8 197 -25z m461 12
c36 -18 36 -21 15 -75 l-16 -39 -31 16 c-46 23 -135 23 -153 -1 -20 -28 -1
-54 44 -61 137 -23 182 -54 189 -132 6 -57 -21 -105 -77 -137 -50 -30 -176
-29 -242 1 -27 12 -48 24 -48 27 0 2 9 25 20 51 19 45 20 45 43 30 13 -8 46
-19 75 -25 66 -12 112 2 112 35 0 26 -7 29 -88 45 -117 22 -158 63 -149 153 5
57 40 99 103 123 48 18 159 12 203 -11z m1264 14 c48 -13 102 -60 130 -113 17
-32 22 -58 22 -116 0 -58 -5 -84 -22 -116 -114 -215 -423 -130 -423 116 0 66
20 118 64 167 60 65 140 87 229 62z m545 -4 c47 -20 79 -50 105 -100 31 -58
31 -193 0 -251 -56 -105 -182 -145 -265 -84 l-28 21 0 -101 0 -100 -60 0 -60
0 0 310 0 310 55 0 c47 0 55 -3 55 -19 0 -17 3 -17 47 5 54 28 99 30 151 9z
m510 -14 c74 -38 116 -116 114 -215 -2 -144 -85 -230 -222 -230 -140 0 -220
87 -220 239 0 70 37 156 81 188 70 50 169 58 247 18z m450 -33 l-3 -62 -35 -4
c-84 -9 -100 -44 -100 -217 l0 -125 -60 0 -60 0 0 230 0 230 60 0 c58 0 60 -1
60 -25 l0 -26 22 21 c22 20 66 37 101 39 16 1 18 -7 15 -61z m1270 35 c69 -52
81 -95 82 -295 l0 -148 -60 0 -60 0 0 134 c0 139 -10 190 -40 206 -32 17 -78
11 -107 -14 l-28 -24 -3 -151 -3 -151 -60 0 -59 0 0 230 0 230 55 0 c48 0 55
-2 55 -20 0 -11 1 -20 3 -20 1 0 25 12 52 26 59 30 130 29 173 -3z m1216 -2
c64 -40 76 -83 76 -274 l0 -167 -55 0 c-49 0 -55 2 -55 20 l0 21 -27 -21 c-44
-32 -113 -37 -166 -11 -59 29 -81 71 -75 140 9 88 58 121 183 121 73 0 75 1
75 24 0 59 -90 84 -165 46 -21 -11 -40 -19 -41 -17 -1 1 -11 21 -22 43 -20 39
-20 43 -4 57 54 48 210 58 276 18z m959 18 c43 -12 101 -59 123 -100 19 -38
34 -120 27 -147 -5 -21 -10 -22 -154 -22 -96 0 -149 -4 -149 -10 0 -23 33 -59
62 -69 46 -16 79 -13 118 10 l34 21 28 -33 c16 -19 27 -41 26 -49 -2 -8 -23
-26 -48 -40 -61 -34 -165 -35 -227 -2 -78 41 -115 110 -116 213 0 164 127 270
276 228z m465 0 c28 -5 57 -16 66 -22 16 -11 15 -16 -4 -59 l-20 -46 -32 16
c-45 22 -122 22 -145 -1 -29 -29 -5 -50 83 -72 120 -31 144 -54 144 -136 0
-91 -68 -144 -185 -144 -67 0 -133 14 -165 34 -13 9 -13 15 1 53 18 48 21 49
108 24 61 -18 108 -11 125 18 16 25 -11 41 -90 56 -110 21 -161 76 -148 160
16 103 120 150 262 119z m-7558 -229 l0 -230 -60 0 -60 0 0 230 0 230 60 0 60
0 0 -230z m1320 113 c24 -65 49 -134 57 -153 l15 -35 55 153 55 152 60 0 c53
0 59 -2 53 -17 -4 -10 -51 -134 -105 -276 -98 -257 -118 -295 -172 -323 -39
-20 -117 -18 -155 6 l-32 19 19 43 c14 31 24 42 37 39 56 -11 86 -5 104 19
l19 25 -85 224 c-47 123 -85 227 -85 232 0 5 27 9 59 9 l59 0 42 -117z m2860
-25 c0 -157 8 -187 53 -202 40 -14 79 3 99 44 14 28 18 61 18 168 l0 132 60 0
60 0 0 -230 0 -230 -55 0 c-48 0 -55 2 -55 20 0 25 -4 25 -39 -1 -68 -50 -181
-29 -229 44 -26 40 -27 44 -30 219 l-4 178 61 0 61 0 0 -142z m1040 -88 l0
-230 -60 0 -60 0 0 230 0 230 60 0 60 0 0 -230z m2597 -92 c34 -32 32 -99 -3
-127 -15 -12 -34 -21 -44 -21 -10 0 -29 9 -44 21 -21 16 -26 29 -26 64 0 35 5
48 26 64 34 27 62 27 91 -1z m-5021 -2069 c29 -13 41 -25 37 -35 -3 -8 0 -14
7 -14 8 0 11 -13 8 -40 -2 -26 0 -36 6 -30 16 16 26 12 26 -10 0 -11 5 -20 10
-20 16 0 -20 -49 -41 -55 -10 -4 -32 -17 -47 -30 -16 -13 -64 -42 -107 -64
-43 -23 -81 -45 -84 -49 -32 -42 -162 -108 -251 -127 -72 -15 -134 -54 -244
-155 -77 -70 -86 -83 -66 -95 6 -4 8 -11 5 -16 -4 -5 4 -9 17 -9 13 0 29 -9
36 -20 7 -11 19 -20 27 -20 8 0 20 -9 27 -20 7 -11 17 -20 23 -20 9 0 46 -27
88 -64 9 -9 22 -16 27 -16 6 0 10 -5 10 -11 0 -5 4 -8 10 -4 5 3 16 -5 24 -18
9 -13 32 -29 51 -37 19 -8 35 -19 35 -26 0 -9 66 -44 84 -44 2 0 6 37 10 83 7
94 32 195 68 282 14 33 29 71 33 85 17 56 67 150 99 189 l35 41 15 -22 c18
-26 21 -17 5 14 -9 17 -6 25 26 55 35 33 65 38 65 11 0 -10 -2 -10 -9 1 -5 7
-11 9 -14 5 -3 -5 1 -15 9 -22 11 -10 14 -10 15 0 1 7 4 2 9 -12 6 -22 8 -23
15 -6 4 10 4 21 -1 25 -15 10 -35 51 -25 51 5 0 18 3 28 6 14 5 15 4 4 -4 -12
-9 -12 -13 -2 -26 8 -9 10 -16 6 -16 -4 0 -2 -7 6 -16 8 -10 9 -18 2 -22 -8
-6 -29 -243 -24 -277 1 -5 4 -52 6 -104 2 -62 8 -97 16 -102 10 -6 14 -65 17
-235 4 -206 3 -227 -12 -221 -10 4 -16 1 -16 -7 0 -14 35 -28 44 -18 3 3 6 26
6 51 0 27 4 41 9 36 15 -16 16 -81 3 -98 -11 -13 -17 -13 -39 -2 -15 8 -30 12
-35 9 -5 -3 8 -14 28 -24 29 -15 40 -17 55 -7 10 6 19 17 19 24 0 7 5 13 10
13 17 0 11 -14 -25 -51 -19 -20 -31 -39 -28 -43 4 -3 1 -6 -5 -6 -12 0 -72 34
-180 103 -40 26 -76 47 -80 47 -5 0 -24 -21 -43 -47 -27 -39 -203 -269 -214
-281 -2 -2 -22 24 -45 57 -24 33 -47 58 -53 54 -5 -3 -7 -1 -3 5 8 13 -57 98
-73 94 -7 -1 -9 2 -6 8 10 16 -32 58 -64 64 -88 18 -94 18 -88 -4 3 -13 0 -23
-9 -27 -8 -3 -12 -9 -9 -13 3 -5 -12 -16 -32 -25 -21 -9 -45 -21 -53 -26 -8
-5 -22 -12 -30 -15 -8 -3 -33 -14 -55 -24 -35 -17 -36 -18 -10 -13 17 3 35 9
40 13 6 4 21 11 34 15 17 5 21 4 16 -5 -4 -7 -3 -15 3 -19 6 -4 9 -17 5 -29
-4 -18 -8 -20 -19 -11 -17 14 -61 4 -61 -15 0 -10 12 -13 39 -12 l38 1 0 -822
c-1 -768 -2 -822 -18 -827 -38 -12 87 6 133 19 175 49 177 49 158 57 -11 5 -6
6 14 2 66 -11 357 127 518 246 271 201 445 470 515 795 11 54 23 101 25 103 2
2 31 -19 63 -48 149 -131 368 -262 536 -320 343 -119 640 -53 877 196 180 190
294 490 318 837 13 179 -3 325 -53 492 -4 11 1 4 10 -15 9 -19 28 -78 42 -130
25 -89 26 -109 26 -305 0 -235 -14 -327 -79 -522 -79 -237 -185 -393 -349
-515 -92 -68 -116 -82 -205 -114 -257 -94 -574 -25 -902 194 -57 39 -139 100
-181 136 -87 74 -76 79 -99 -39 -46 -242 -176 -489 -347 -663 -268 -272 -632
-430 -1162 -506 -19 -3 -86 -8 -149 -12 l-114 -7 6 29 c4 16 16 112 27 214 11
102 24 211 28 242 l9 58 -35 9 c-53 15 -75 47 -68 99 3 23 13 54 23 68 17 26
16 27 -14 53 -61 52 -65 97 -11 150 70 68 -2 137 -165 158 -71 9 -90 37 -85
128 3 56 12 87 45 155 22 47 55 119 72 160 18 41 36 84 41 95 5 11 40 103 78
205 l68 185 -39 37 c-39 37 -39 38 -35 101 3 53 9 72 39 113 20 27 75 117 124
199 190 323 186 318 209 309 17 -7 22 -34 6 -34 -5 0 -10 7 -10 16 0 8 -4 13
-9 10 -11 -7 9 -54 26 -60 7 -3 15 0 19 6 4 6 3 8 -3 5 -6 -4 -9 13 -9 43 0
26 4 46 8 44 5 -3 8 5 8 18 l0 22 -16 -22 c-8 -12 -12 -26 -9 -32 3 -6 -1 -7
-9 -4 -14 5 -13 10 5 35 11 16 24 29 28 29 4 0 13 10 19 23 6 12 11 16 11 8 1
-11 4 -11 19 2 16 15 18 15 18 -2 0 -14 -7 -18 -24 -16 -23 2 -23 1 -21 -87 1
-49 -1 -91 -5 -95 -16 -16 -5 -35 18 -31 19 4 22 1 18 -14 -2 -10 1 -18 7 -18
7 0 9 -4 6 -10 -9 -14 1 -12 17 3 26 26 243 184 263 191 18 6 17 9 -14 38
-112 104 -67 224 134 361 33 22 62 44 65 47 9 12 73 39 130 55 69 19 159 12
216 -16z m145 -1571 c21 -24 24 -38 8 -38 -5 0 -7 -5 -3 -11 5 -8 9 -8 14 1 6
9 9 9 15 0 4 -6 0 -19 -9 -29 -18 -20 -20 -30 -7 -50 13 -21 43 11 35 36 -4
10 14 -4 39 -32 26 -27 49 -58 52 -68 4 -9 10 -15 15 -12 4 3 13 -2 20 -10 19
-23 -3 -18 -44 10 -20 13 -36 20 -36 15 0 -5 5 -12 10 -15 6 -4 10 -57 10
-126 0 -106 -2 -119 -17 -120 -17 -1 -17 -2 0 -6 12 -3 17 -15 17 -43 0 -21 5
-40 12 -42 17 -6 22 -88 7 -116 -8 -14 -9 -26 -4 -30 14 -10 19 -52 6 -52 -5
0 -12 6 -15 13 -3 6 -4 -1 -2 -17 4 -29 -20 -76 -54 -103 -8 -7 -12 -13 -7
-13 15 0 -62 -95 -164 -199 -160 -166 -389 -283 -573 -293 l-49 -3 1 60 c1 33
5 88 8 121 6 61 6 61 -22 68 -16 4 -32 13 -36 19 -10 16 10 47 31 47 10 0 23
6 28 13 6 6 17 134 26 284 14 254 17 275 38 305 43 62 190 202 307 293 7 6 18
15 25 20 34 28 157 105 197 123 60 27 98 27 121 0z m429 -1300 c0 -8 -17 -11
-75 -12 -20 -1 -31 -7 -33 -18 -2 -10 1 -18 7 -18 26 0 8 -20 -23 -25 -33 -7
-57 -40 -34 -47 5 -2 -40 -53 -100 -114 -60 -61 -118 -125 -128 -143 -10 -17
-22 -31 -26 -31 -4 0 -8 -6 -8 -13 0 -7 -14 -32 -31 -55 -17 -23 -26 -42 -21
-42 13 0 15 -291 3 -343 -8 -32 -6 -42 9 -57 34 -34 199 -67 390 -76 119 -6
150 -14 150 -37 0 -9 -438 -4 -540 7 -19 2 -26 1 -15 -1 11 -3 25 -9 32 -15 7
-5 16 -7 22 -4 5 3 20 1 33 -4 34 -15 -112 -4 -208 16 -215 44 -285 108 -256
235 24 104 155 335 174 308 8 -11 8 -10 4 4 -7 22 11 60 25 52 5 -4 8 -2 7 3
-4 14 41 74 51 67 5 -2 8 1 7 8 -2 19 62 89 75 82 5 -4 31 13 57 37 26 24 70
61 97 83 28 22 53 45 57 50 5 7 8 7 8 0 0 -6 3 -5 8 1 9 13 81 60 140 90 42
21 142 29 142 12z"/>
<path d="M10559 10927 c-86 -58 -114 -146 -114 -357 0 -119 4 -168 17 -211 35
-113 96 -169 182 -169 90 0 146 54 183 175 25 84 25 324 -1 410 -35 120 -92
175 -182 175 -37 0 -61 -6 -85 -23z"/>
<path d="M8154 10673 c-43 -119 -80 -220 -82 -225 -2 -4 71 -8 163 -8 155 0
167 1 160 18 -3 9 -40 109 -82 222 -41 113 -76 206 -77 207 -2 2 -38 -94 -82
-214z"/>
<path d="M11730 9312 c-17 -17 -30 -44 -35 -70 -20 -120 85 -197 167 -123 31
28 33 33 33 96 0 63 -2 68 -33 96 -44 39 -93 40 -132 1z"/>
<path d="M2720 9313 c-39 -35 -49 -87 -26 -135 41 -86 169 -74 195 17 30 110
-87 192 -169 118z"/>
<path d="M6217 9319 c-54 -42 -58 -150 -6 -201 81 -81 196 22 160 142 -22 73
-99 103 -154 59z"/>
<path d="M8400 9313 c-51 -46 -53 -151 -5 -199 26 -26 81 -32 116 -14 28 16
49 63 49 114 0 58 -17 94 -51 112 -42 21 -75 17 -109 -13z"/>
<path d="M10627 9319 c-56 -43 -60 -148 -7 -201 76 -76 185 6 165 124 -15 85
-97 125 -158 77z"/>
<path d="M13811 9326 c-49 -27 -65 -99 -36 -156 19 -37 43 -50 95 -50 102 0
139 135 56 202 -25 21 -81 23 -115 4z"/>
<path d="M14571 9326 c-34 -19 -50 -54 -51 -109 0 -82 35 -127 100 -127 42 0
67 15 85 50 18 35 20 109 3 145 -22 48 -88 68 -137 41z"/>
<path d="M11864 8301 c-52 -32 -69 -112 -38 -177 16 -34 58 -64 89 -64 53 0
105 65 105 130 0 67 -52 130 -107 130 -10 0 -32 -9 -49 -19z"/>
<path d="M12874 8311 c-42 -18 -64 -59 -64 -122 0 -51 4 -63 29 -91 24 -27 36
-33 71 -33 35 0 47 6 71 33 25 28 29 40 29 92 0 51 -4 64 -27 90 -30 32 -75
45 -109 31z"/>
<path d="M4072 8258 l3 -183 30 1 c17 1 55 2 86 3 70 1 115 29 147 91 43 83
16 198 -58 247 -28 20 -46 23 -122 23 l-88 0 2 -182z"/>
<path d="M6651 8307 c-42 -21 -63 -60 -63 -117 0 -59 21 -96 66 -118 24 -12
34 -12 64 0 89 33 97 189 12 233 -35 18 -48 18 -79 2z"/>
<path d="M8422 8307 c-39 -22 -57 -58 -56 -117 0 -66 22 -104 69 -120 51 -17
97 6 118 59 21 52 21 70 1 121 -24 60 -81 85 -132 57z"/>
<path d="M8930 8293 c-54 -48 -58 -147 -10 -198 30 -32 63 -38 105 -21 82 35
87 189 6 230 -43 23 -66 20 -101 -11z"/>
<path d="M9443 8310 c-34 -14 -63 -69 -63 -117 0 -59 14 -90 52 -113 41 -25
83 -20 118 15 22 22 25 34 25 95 0 61 -3 73 -25 95 -28 28 -74 39 -107 25z"/>
<path d="M8063 4757 c-2 -4 -7 -32 -10 -62 l-6 -54 84 19 c46 10 131 28 189
40 127 27 148 36 100 44 -64 10 -352 21 -357 13z"/>
</g>
</svg>
